<svg id="Calque_2" data-name="Calque 2" xmlns="http://www.w3.org/2000/svg" viewBox="0 0 458.4 64.1">
  <defs>
    <style>
      .cls-1 {
        fill: #6c594b;
      }

      .cls-2 {
        fill: #d68717;
      }

      .cls-3 {
        fill: #d78817;
      }
    </style>
  </defs>
  <title>logos</title>
  <g>
    <g>
      <path class="cls-1" d="M789.3,300l-2.3,7h1.4l.4-1.3h3l.4,1.3h1.4l-2.4-7Zm-.2,4.7,1.2-3.6,1.2,3.6Z" transform="translate(-764.8 -251)"/>
      <path class="cls-1" d="M804,304v1.8h0l-.3-.6-.3-.6-.6-1.1-1.8-3.5h-2.2v7h1.3v-5.8h.1l.2.5.2.5.5,1,2,3.8h2.2v-7H804Z" transform="translate(-764.8 -251)"/>
      <polygon class="cls-1" points="52.2 48.9 50.5 48.9 48.2 51.8 47.6 51.8 47.6 48.9 46.2 48.9 46.2 55.9 47.6 55.9 47.6 52.9 48.2 52.9 50.8 55.9 52.5 55.9 49.3 52.3 52.2 48.9"/>
      <rect class="cls-1" x="57.5" y="48.9" width="1.3" height="7"/>
      <path class="cls-1" d="M834.6,304v1.8h0l-.3-.6-.3-.6-.6-1.1-1.8-3.5h-2.2v7h1.3v-5.8h.1l.2.5.2.5.5,1,2,3.8h2.2v-7h-1.3Z" transform="translate(-764.8 -251)"/>
      <path class="cls-1" d="M844.4,303.2v1h1.8v.3c0,.6-.1,1-.3,1.1a2.5,2.5,0,0,1-1.4.2,2.3,2.3,0,0,1-1.4-.3,1.9,1.9,0,0,1-.3-1.3v-1.6a1.9,1.9,0,0,1,.3-1.3,2.4,2.4,0,0,1,1.5-.3l1.3.2c.2.1.3.4.3.9h1.3c0-.9-.2-1.5-.5-1.8a4.7,4.7,0,0,0-2.4-.4,5.6,5.6,0,0,0-2,.3,1.7,1.7,0,0,0-.9,1,10.5,10.5,0,0,0-.2,2.9,3.4,3.4,0,0,0,.6,2.4,3.5,3.5,0,0,0,2.4.6,4.8,4.8,0,0,0,2.6-.4q.6-.4.6-2v-1.4Z" transform="translate(-764.8 -251)"/>
      <path class="cls-1" d="M875.8,304.6c0,.5-.1.9-.3,1a4.2,4.2,0,0,1-2.6,0c-.2-.1-.3-.5-.3-1V300h-1.3v4.7a2.3,2.3,0,0,0,.6,1.9,4.3,4.3,0,0,0,2.4.4,3.8,3.8,0,0,0,2.3-.5,2.5,2.5,0,0,0,.6-1.9V300h-1.3Z" transform="translate(-764.8 -251)"/>
      <path class="cls-1" d="M885.7,302.9l-1.6-.2q-.2-.1-.2-.8a.8.8,0,0,1,.3-.7l1.2-.2h1c.1.1.2.3.3.7H888v-.3a1.7,1.7,0,0,0-.5-1.5,6.3,6.3,0,0,0-4.3,0,1.9,1.9,0,0,0-.6,1.6,2,2,0,0,0,.5,1.6,4.3,4.3,0,0,0,2.1.5h.7l.8.2a.9.9,0,0,1,.2.7c0,.5-.1.8-.2.9l-1.1.2-1.4-.2c-.2-.1-.3-.4-.3-.9h-1.3v.3a1.9,1.9,0,0,0,.5,1.6,4.1,4.1,0,0,0,2.2.4,4.4,4.4,0,0,0,2.4-.4c.4-.3.5-.9.5-1.8a1.9,1.9,0,0,0-.5-1.5,4.1,4.1,0,0,0-2-.4" transform="translate(-764.8 -251)"/>
      <rect class="cls-1" x="128.8" y="48.9" width="1.3" height="7"/>
      <path class="cls-1" d="M905.9,304v1.8h0l-.3-.6-.3-.6-.6-1.1L903,300h-2.3v7H902v-5.8h.1l.2.5.2.5.5,1,2,3.8h2.3v-7h-1.3Z" transform="translate(-764.8 -251)"/>
      <polygon class="cls-1" points="149.3 52.8 152.6 52.8 152.6 51.9 149.3 51.9 149.3 50.1 152.8 50.1 152.8 48.9 148 48.9 148 55.9 152.8 55.9 152.8 54.8 149.3 54.8 149.3 52.8"/>
      <path class="cls-1" d="M926,302.9l-1.6-.2c-.2-.1-.2-.4-.2-.8a.8.8,0,0,1,.3-.7l1.2-.2h1c.1.1.2.3.3.7h1.3v-.3a1.7,1.7,0,0,0-.5-1.5,6.3,6.3,0,0,0-4.3,0,1.9,1.9,0,0,0-.6,1.6,2,2,0,0,0,.5,1.6,4.3,4.3,0,0,0,2.1.5h.7l.8.2a.9.9,0,0,1,.2.7c0,.5-.1.8-.2.9l-1.1.2-1.4-.2c-.2-.1-.3-.4-.3-.9h-1.3v.3a1.9,1.9,0,0,0,.5,1.6,4.1,4.1,0,0,0,2.2.4,4.4,4.4,0,0,0,2.4-.4c.4-.3.5-.9.5-1.8a1.8,1.8,0,0,0-.5-1.5,4.1,4.1,0,0,0-2-.4" transform="translate(-764.8 -251)"/>
      <path class="cls-1" d="M936.8,302.9l-1.6-.2c-.2-.1-.2-.4-.2-.8a.8.8,0,0,1,.3-.7l1.2-.2h1a1,1,0,0,1,.3.7h1.3v-.3a1.7,1.7,0,0,0-.5-1.5,6.3,6.3,0,0,0-4.3,0,1.9,1.9,0,0,0-.6,1.6,2,2,0,0,0,.5,1.6,4.3,4.3,0,0,0,2.1.5h.7l.8.2a.9.9,0,0,1,.2.7c0,.5-.1.8-.2.9l-1.1.2-1.4-.2c-.2-.1-.3-.4-.3-.9h-1.3v.3a1.9,1.9,0,0,0,.5,1.6,4.1,4.1,0,0,0,2.2.4,4.4,4.4,0,0,0,2.4-.4c.4-.3.5-.9.5-1.8a1.9,1.9,0,0,0-.5-1.5,4.1,4.1,0,0,0-2-.4" transform="translate(-764.8 -251)"/>
      <path class="cls-1" d="M956.4,304.6c0,.5-.1.9-.3,1a4.2,4.2,0,0,1-2.6,0c-.2-.1-.3-.5-.3-1V300h-1.3v4.7a2.3,2.3,0,0,0,.6,1.9,4.3,4.3,0,0,0,2.4.4,3.8,3.8,0,0,0,2.3-.5,2.5,2.5,0,0,0,.6-1.9V300h-1.3Z" transform="translate(-764.8 -251)"/>
      <path class="cls-1" d="M968.6,304v1.8h0l-.3-.6-.3-.6-.6-1.1-1.8-3.5h-2.2v7h1.3v-5.8h.1l.2.5.2.5.5,1,2,3.8h2.2v-7h-1.3Z" transform="translate(-764.8 -251)"/>
      <rect class="cls-1" x="210.8" y="48.9" width="1.3" height="7"/>
      <polygon class="cls-1" points="217.4 50.1 219.4 50.1 219.4 55.9 220.7 55.9 220.7 50.1 222.8 50.1 222.8 48.9 217.4 48.9 217.4 50.1"/>
      <polygon class="cls-1" points="223.7 17.2 217.7 17.2 204.7 30.9 204.7 4.7 200.4 4.7 200.4 44.8 204.7 44.8 204.7 37.2 208.6 33.1 217.9 44.6 218 44.8 223.5 44.8 211.6 30 223 17.9 223.7 17.2"/>
      <path class="cls-2" d="M800.8,271.5c-2.3,2.5-3.5,6-3.5,10.4v13.9h4.3V281.9c0-3.2.8-5.7,2.3-7.4s3.7-2.5,6.6-2.5h.4v-4.3h-.4c-4.1,0-7.4,1.3-9.7,3.8" transform="translate(-764.8 -251)"/>
      <path class="cls-2" d="M837.8,271.4c-2.5-2.5-6-3.8-10.5-3.8s-8,1.3-10.5,3.8-3.7,6-3.7,10.4,1.3,8,3.7,10.5,6,3.7,10.5,3.7,8-1.3,10.5-3.7,3.7-6,3.7-10.5-1.3-7.9-3.7-10.4m-3.1,17.8c-1.7,1.7-4.1,2.5-7.4,2.5s-5.7-.8-7.4-2.5-2.5-4.1-2.5-7.4.8-5.7,2.5-7.4,4.1-2.5,7.4-2.5,5.7.8,7.4,2.5,2.5,4.1,2.5,7.4-.8,5.7-2.5,7.4" transform="translate(-764.8 -251)"/>
      <path class="cls-1" d="M930.1,271.4c-2.5-2.5-6-3.8-10.5-3.8s-8,1.3-10.5,3.8-3.7,6-3.7,10.5,1.3,7.9,3.7,10.4,6,3.7,10.4,3.7,7.7-1.2,10.3-3.6l.3-.3-3-3.1-.3.3c-1.7,1.6-4.1,2.4-7.2,2.4a10.3,10.3,0,0,1-6.8-2.1,8.6,8.6,0,0,1-2.8-5.6h21.8a2.1,2.1,0,0,0,1.5-.6,2.1,2.1,0,0,0,.7-1.6c0-4.4-1.3-7.9-3.7-10.4m-20.2,8.3a8.5,8.5,0,0,1,2.8-5.7,12.5,12.5,0,0,1,13.8,0,8.7,8.7,0,0,1,2.8,5.7Z" transform="translate(-764.8 -251)"/>
      <path class="cls-1" d="M957.8,289.3c-1.7,1.6-4.1,2.5-7.3,2.5s-5.7-.8-7.4-2.5-2.5-4.1-2.5-7.4.8-5.7,2.5-7.3,4.1-2.5,7.4-2.5a10.6,10.6,0,0,1,6.6,1.9l.3.2,2.6-3.5-.3-.2a14.8,14.8,0,0,0-9.2-2.7c-4.5,0-8,1.3-10.5,3.8s-3.7,6-3.7,10.4,1.3,8,3.7,10.5,6,3.7,10.5,3.7a17.8,17.8,0,0,0,5.8-.9,12,12,0,0,0,4.5-2.7l.3-.3-3-3.2Z" transform="translate(-764.8 -251)"/>
      <path class="cls-1" d="M867.6,289.3c-1.7,1.6-4.1,2.5-7.3,2.5a11,11,0,0,1-6.2-1.6h-6l.3.4a11.6,11.6,0,0,0,1.4,1.8c2.5,2.5,6,3.7,10.5,3.7a17.8,17.8,0,0,0,5.8-.9,12,12,0,0,0,4.5-2.7l.3-.3-3-3.2Z" transform="translate(-764.8 -251)"/>
      <path class="cls-1" d="M860.3,272a10.6,10.6,0,0,1,6.6,1.9l.3.2,2.6-3.5-.3-.2a14.8,14.8,0,0,0-9.2-2.8c-4.5,0-8,1.3-10.5,3.8a12.2,12.2,0,0,0-1.6,2.1l-.2.4h5.8a10.6,10.6,0,0,1,6.5-1.9" transform="translate(-764.8 -251)"/>
      <path class="cls-1" d="M875.1,285.6v10.3h4.3v-8.6c-3.1,1.8-4.3-1.6-4.3-1.6" transform="translate(-764.8 -251)"/>
      <rect class="cls-1" x="132.3" y="34.7" width="4.3" height="10.12"/>
      <path class="cls-1" d="M879.2,278.5h0a5.1,5.1,0,0,1,2-4,10.8,10.8,0,0,1,7-2.5,8.4,8.4,0,0,1,6.6,2.5,8.6,8.6,0,0,1,1.9,4.1v.2h4.4v-.3a16,16,0,0,0-.6-2.5,12.6,12.6,0,0,0-2.6-4.5,11.5,11.5,0,0,0-4.2-2.8,14.6,14.6,0,0,0-5.5-1,15.1,15.1,0,0,0-5.5.9,11.3,11.3,0,0,0-3.4,2V255.8h-4.3v21.2s2.7-1.6,4.2,1.5" transform="translate(-764.8 -251)"/>
      <path class="cls-2" d="M862.1,285.2H845.8a1.7,1.7,0,1,0,0,3.3h17.6l.3-.2h.2l7-6.3a1.7,1.7,0,0,0,.1-2.4,1.7,1.7,0,0,0-2.4-.1Z" transform="translate(-764.8 -251)"/>
      <path class="cls-2" d="M845.8,283.8h15.5a1.7,1.7,0,1,0,0-3.3H845.8a1.7,1.7,0,1,0,0,3.3" transform="translate(-764.8 -251)"/>
      <path class="cls-2" d="M901.1,280.4H885.8a1.7,1.7,0,1,0,0,3.3h15.2a1.7,1.7,0,1,0,0-3.3" transform="translate(-764.8 -251)"/>
      <path class="cls-2" d="M845.8,278.7h16.4l1.9,1.6a1.7,1.7,0,0,0,2.4-.2,1.7,1.7,0,0,0-.2-2.4l-2.3-2-.3-.2H845.8a1.7,1.7,0,1,0,0,3.3" transform="translate(-764.8 -251)"/>
      <path class="cls-2" d="M870.8,283.9a1.7,1.7,0,0,0,2.8,1.2l3.3-3.2a1.7,1.7,0,0,0-2.3-2.4l-3.3,3.2a1.7,1.7,0,0,0-.5,1.2" transform="translate(-764.8 -251)"/>
      <path class="cls-2" d="M883.5,280.7a1.7,1.7,0,0,0-2.8-1.2l-3.3,3.2a1.7,1.7,0,1,0,2.3,2.4l3.3-3.2a1.7,1.7,0,0,0,.5-1.2" transform="translate(-764.8 -251)"/>
      <path class="cls-2" d="M789.4,271.4c-2.5-2.5-6-3.7-10.4-3.7s-8,1.3-10.5,3.7-3.7,6-3.7,10.4v25.6h4.3V292.8A12.2,12.2,0,0,0,773,295a17,17,0,0,0,6.1,1c4.4,0,7.9-1.3,10.4-3.7s3.7-6,3.7-10.5-1.3-7.9-3.7-10.4m-3.1,17.8c-1.7,1.7-4.2,2.5-7.4,2.5s-5.7-.8-7.4-2.5-2.5-4.1-2.5-7.4.8-5.7,2.5-7.3,4.1-2.5,7.4-2.5,5.7.9,7.4,2.5,2.5,4.1,2.5,7.3-.9,5.7-2.5,7.4" transform="translate(-764.8 -251)"/>
      <path class="cls-1" d="M781,303.4h0c.7-.2,1-.7,1-1.5a1.9,1.9,0,0,0-.4-1.5,2.6,2.6,0,0,0-1.6-.4h-3.4v7h3.6a2.4,2.4,0,0,0,1.6-.4,2,2,0,0,0,.5-1.5q0-1.5-1.2-1.7m-3.2-2.3h1.9c.6,0,1,.3,1,.8s-.1.7-.2.8l-1,.2h-1.6Zm2.8,4.6-.9.2h-1.9v-2h1.7l1.1.2c.1.1.2.4.2.8a1.1,1.1,0,0,1-.2.8" transform="translate(-764.8 -251)"/>
      <path class="cls-1" d="M864.6,303.4h0c.7-.2,1-.7,1-1.5a1.9,1.9,0,0,0-.4-1.5,2.6,2.6,0,0,0-1.6-.4h-3.4v7h3.6a2.4,2.4,0,0,0,1.6-.4,2,2,0,0,0,.5-1.5q0-1.5-1.2-1.7m-3.2-2.3h1.9c.6,0,1,.3,1,.8s-.1.7-.2.8l-1,.2h-1.6Zm2.8,4.6-.9.2h-1.9v-2h1.7l1.1.2c.1.1.2.4.2.8a1.1,1.1,0,0,1-.2.8" transform="translate(-764.8 -251)"/>
    </g>
    <line class="cls-3" x1="246" x2="246" y2="64.1"/>
    <g>
      <path class="cls-1" d="M1186.8,268.3c-1.2-1.6-3-2.4-5.6-2.4H1146v8.8a3.2,3.2,0,0,1,4.3,2.4v-7h14.8v6.1h4.4v-6.1h10.4c1.1,0,4.3.4,4.3,5.2V294h4.3V273.8A8.7,8.7,0,0,0,1186.8,268.3Z" transform="translate(-764.8 -251)"/>
      <rect class="cls-1" x="400.3" y="32.9" width="4.4" height="10.11"/>
      <path class="cls-1" d="M1146.8,284.7l-.6-.8-.2-.5V294h4.3v-8.2h-.8A3.8,3.8,0,0,1,1146.8,284.7Z" transform="translate(-764.8 -251)"/>
    </g>
    <path class="cls-1" d="M1061.6,280.2a5.8,5.8,0,0,0-4.6-2.1h-15.2a3.7,3.7,0,0,1-4-3.9c0-2.4,1.5-3.9,4-3.9h20.3V266h-21.8a5.9,5.9,0,0,0-3.4,1c-2.1,1.4-3.1,3.8-3.1,7.1a8.8,8.8,0,0,0,1.8,5.9,5.8,5.8,0,0,0,4.6,2.1h15.2c2.5,0,4,1.5,4,3.9a3.7,3.7,0,0,1-4,4h-21.6v4.2H1057a6,6,0,0,0,3.4-.9c2-1.4,3-3.7,3-7.1A8.9,8.9,0,0,0,1061.6,280.2Z" transform="translate(-764.8 -251)"/>
    <path class="cls-1" d="M1097.9,271.9a7.9,7.9,0,0,0-1.9-3.5,7.7,7.7,0,0,0-6.1-2.4h-19.8v4.4h17.9a7.6,7.6,0,0,1,2.4.3c1.4.5,3.1,1.8,3.1,5.6v1.7h-18.7a5.9,5.9,0,0,0-4.7,2,9,9,0,0,0-1.8,6,9.2,9.2,0,0,0,1.8,6.1,5.8,5.8,0,0,0,4.7,2h23.3V276.6A22.5,22.5,0,0,0,1097.9,271.9Zm-21,17.8a3.8,3.8,0,1,1,0-7.7h16.7v7.7Z" transform="translate(-764.8 -251)"/>
    <path class="cls-1" d="M1222.7,271.9a7.9,7.9,0,0,0-1.9-3.5,7.7,7.7,0,0,0-6.1-2.4H1195v4.4h17.9a7.6,7.6,0,0,1,2.4.3c1.4.5,3.1,1.8,3.1,5.6v1.7h-18.7a5.9,5.9,0,0,0-4.7,2,9,9,0,0,0-1.8,6,9.2,9.2,0,0,0,1.8,6.1,5.8,5.8,0,0,0,4.7,2h23.3V276.6A22.5,22.5,0,0,0,1222.7,271.9Zm-21,17.8a3.8,3.8,0,1,1,0-7.7h16.7v7.7Z" transform="translate(-764.8 -251)"/>
    <path class="cls-3" d="M1105.8,269.4c-1.9,2.5-2.8,6-2.8,10.6s.9,8.1,2.8,10.6,4.3,3.5,7.8,3.5h22.4v-9.9h-4.5v5.7h-16.8a6.3,6.3,0,0,1-5.8-3.4,15.2,15.2,0,0,1,0-13,6.3,6.3,0,0,1,5.7-3.3h21.3v-4.2h-22.4C1110.1,265.9,1107.6,267,1105.8,269.4Z" transform="translate(-764.8 -251)"/>
    <g>
      <path class="cls-3" d="M1140.1,286.8h-.2l-.3.2h-19a1.8,1.8,0,0,1,0-3.7h17.6l7.2-6.4a1.8,1.8,0,1,1,2.4,2.7Z" transform="translate(-764.8 -251)"/>
      <path class="cls-3" d="M1120.6,278.2h16.7a1.8,1.8,0,0,1,0,3.7h-16.7a1.8,1.8,0,1,1,0-3.7Z" transform="translate(-764.8 -251)"/>
      <path class="cls-3" d="M1181,281.9h-16.7a1.8,1.8,0,0,1,0-3.7H1181a1.8,1.8,0,0,1,0,3.7Z" transform="translate(-764.8 -251)"/>
      <path class="cls-3" d="M1141.5,278.6a1.8,1.8,0,0,1-1.2-.4l-2.1-1.8h-17.7a1.8,1.8,0,1,1,0-3.7h19.2l.3.2,2.6,2.2a1.8,1.8,0,0,1-1.2,3.2Z" transform="translate(-764.8 -251)"/>
      <path class="cls-3" d="M1150.8,283.4a1.8,1.8,0,1,1-2.6-2.6l3.7-3.6a1.8,1.8,0,1,1,2.6,2.6Z" transform="translate(-764.8 -251)"/>
      <path class="cls-3" d="M1157.5,283.4a1.8,1.8,0,1,1-2.6-2.6l3.7-3.6a1.8,1.8,0,1,1,2.6,2.6Z" transform="translate(-764.8 -251)"/>
    </g>
    <g>
      <path class="cls-1" d="M1035.1,301.4v5.3h-1v-5.3Z" transform="translate(-764.8 -251)"/>
      <path class="cls-1" d="M1043.9,301.4v5.3h-1.7l-1.5-2.9-.4-.8-.2-.4-.2-.4h0v4.4h-1v-5.3h1.7l1.4,2.7.4.9.2.4.2.4h0v-4.4Z" transform="translate(-764.8 -251)"/>
      <path class="cls-1" d="M1051.7,302.9h-1q0-.4-.2-.6h-1.7a.6.6,0,0,0-.2.6q0,.5.2.6l1.2.2a3.1,3.1,0,0,1,1.5.3,1.4,1.4,0,0,1,.3,1.1q0,1.1-.4,1.4a3.4,3.4,0,0,1-1.8.3,3.1,3.1,0,0,1-1.7-.3,1.5,1.5,0,0,1-.4-1.2V305h1q0,.6.2.7h1.9q.2-.1.2-.7a.7.7,0,0,0-.1-.5l-.6-.2h-.6a3.3,3.3,0,0,1-1.6-.4,1.5,1.5,0,0,1-.4-1.2,1.5,1.5,0,0,1,.4-1.2,4.8,4.8,0,0,1,3.3,0,1.3,1.3,0,0,1,.4,1.1Z" transform="translate(-764.8 -251)"/>
      <path class="cls-1" d="M1057.6,302.3v4.4h-1v-4.4h-1.5v-.9h4.1v.9Z" transform="translate(-764.8 -251)"/>
      <path class="cls-1" d="M1063.7,301.4v5.3h-1v-5.3Z" transform="translate(-764.8 -251)"/>
      <path class="cls-1" d="M1069.7,302.3v4.4h-1v-4.4h-1.5v-.9h4.1v.9Z" transform="translate(-764.8 -251)"/>
      <path class="cls-1" d="M1078.2,301.4h1v3.5a1.9,1.9,0,0,1-.4,1.5,2.9,2.9,0,0,1-1.7.4,3.3,3.3,0,0,1-1.8-.3,1.8,1.8,0,0,1-.4-1.4v-3.6h1V305q0,.6.2.7l1,.2,1-.2q.2-.2.2-.8Z" transform="translate(-764.8 -251)"/>
      <path class="cls-1" d="M1085.2,302.3v4.4h-1v-4.4h-1.5v-.9h4.1v.9Z" transform="translate(-764.8 -251)"/>
      <path class="cls-1" d="M1091.3,301.4v5.3h-1v-5.3Z" transform="translate(-764.8 -251)"/>
      <path class="cls-1" d="M1097.4,301.3a2.5,2.5,0,0,1,1.9.5,3.6,3.6,0,0,1,.4,2.2,4,4,0,0,1-.4,2.3q-.4.5-2,.5a2.6,2.6,0,0,1-1.9-.5,3.3,3.3,0,0,1-.4-2.1,4.3,4.3,0,0,1,.4-2.4Q1095.7,301.3,1097.4,301.3Zm-.1.9q-1,0-1.2.3a5,5,0,0,0-.2,1.8,2.7,2.7,0,0,0,.2,1.4q.2.2,1.2.2t1.1-.3a3.8,3.8,0,0,0,.2-1.6,3.8,3.8,0,0,0-.2-1.6Q1098.3,302.2,1097.3,302.2Z" transform="translate(-764.8 -251)"/>
      <path class="cls-1" d="M1108.2,301.4v5.3h-1.7l-1.5-2.9-.4-.8-.2-.4-.2-.4h0v4.4h-1v-5.3h1.7l1.4,2.7.4.9.2.4.2.4h0v-4.4Z" transform="translate(-764.8 -251)"/>
      <path class="cls-1" d="M1115.3,305.7H1113l-.3,1h-1.1l1.8-5.3h1.5l1.8,5.3h-1Zm-.2-.7-.9-2.8-.9,2.8Z" transform="translate(-764.8 -251)"/>
      <path class="cls-1" d="M1121.1,301.4v4.4h2.5v.9h-3.5v-5.3Z" transform="translate(-764.8 -251)"/>
      <path class="cls-1" d="M1132,306.7v-5.3h2.6a2,2,0,0,1,1.3.3,1.4,1.4,0,0,1,.3,1.1q0,1-.8,1.2h0q.9.1.9,1.3a1.5,1.5,0,0,1-.4,1.1,1.8,1.8,0,0,1-1.2.3Zm1-3.1h2q.2-.1.2-.6t-.7-.6H1133Zm0,2.2h2.1a.8.8,0,0,0,.2-.6q0-.5-.2-.6H1133Z" transform="translate(-764.8 -251)"/>
      <path class="cls-1" d="M1143.5,301.4h1v3.5a1.9,1.9,0,0,1-.4,1.5,2.9,2.9,0,0,1-1.7.4,3.3,3.3,0,0,1-1.8-.3,1.8,1.8,0,0,1-.4-1.4v-3.6h1V305q0,.6.2.7l1,.2,1-.2q.2-.2.2-.8Z" transform="translate(-764.8 -251)"/>
      <path class="cls-1" d="M1152.3,302.9h-1q0-.4-.2-.6h-1.7a.6.6,0,0,0-.2.6q0,.5.2.6l1.2.2a3.1,3.1,0,0,1,1.5.3,1.4,1.4,0,0,1,.3,1.1q0,1.1-.4,1.4a3.4,3.4,0,0,1-1.8.3,3.1,3.1,0,0,1-1.7-.3,1.5,1.5,0,0,1-.4-1.2V305h1q0,.6.2.7h1.9q.2-.1.2-.7a.7.7,0,0,0-.1-.5l-.6-.2h-.6a3.3,3.3,0,0,1-1.6-.4,1.5,1.5,0,0,1-.4-1.2,1.5,1.5,0,0,1,.4-1.2,4.8,4.8,0,0,1,3.3,0,1.3,1.3,0,0,1,.4,1.1Z" transform="translate(-764.8 -251)"/>
      <path class="cls-1" d="M1157.1,301.4v5.3h-1v-5.3Z" transform="translate(-764.8 -251)"/>
      <path class="cls-1" d="M1165.9,301.4v5.3h-1.7l-1.5-2.9-.4-.8-.2-.4-.2-.4h0v4.4h-1v-5.3h1.7l1.4,2.7.4.9.2.4.2.4h0v-4.4Z" transform="translate(-764.8 -251)"/>
      <path class="cls-1" d="M1170.7,302.2v1.4h2.5v.7h-2.5v1.5h2.7v.8h-3.7v-5.3h3.6v.8Z" transform="translate(-764.8 -251)"/>
      <path class="cls-1" d="M1181,302.9h-1q0-.4-.2-.6h-1.7a.6.6,0,0,0-.2.6q0,.5.2.6l1.2.2a3.1,3.1,0,0,1,1.5.3,1.4,1.4,0,0,1,.3,1.1q0,1.1-.4,1.4a3.4,3.4,0,0,1-1.8.3,3.1,3.1,0,0,1-1.7-.3,1.5,1.5,0,0,1-.4-1.2V305h1q0,.6.2.7h1.9q.2-.1.2-.7a.7.7,0,0,0-.1-.5l-.6-.2h-.6a3.3,3.3,0,0,1-1.6-.4,1.5,1.5,0,0,1-.4-1.2,1.5,1.5,0,0,1,.4-1.2,4.8,4.8,0,0,1,3.3,0,1.3,1.3,0,0,1,.4,1.1Z" transform="translate(-764.8 -251)"/>
      <path class="cls-1" d="M1188.8,302.9h-1q0-.4-.2-.6h-1.7a.6.6,0,0,0-.2.6q0,.5.2.6l1.2.2a3.1,3.1,0,0,1,1.5.3,1.4,1.4,0,0,1,.3,1.1q0,1.1-.4,1.4a3.4,3.4,0,0,1-1.8.3,3.1,3.1,0,0,1-1.7-.3,1.5,1.5,0,0,1-.4-1.2V305h1q0,.6.2.7h1.9q.2-.1.2-.7a.7.7,0,0,0-.1-.5l-.6-.2h-.6a3.3,3.3,0,0,1-1.6-.4,1.5,1.5,0,0,1-.4-1.2,1.5,1.5,0,0,1,.4-1.2,4.8,4.8,0,0,1,3.3,0,1.3,1.3,0,0,1,.4,1.1Z" transform="translate(-764.8 -251)"/>
      <path class="cls-1" d="M1200.9,301.4h1v3.5a1.9,1.9,0,0,1-.4,1.5,2.9,2.9,0,0,1-1.7.4,3.3,3.3,0,0,1-1.8-.3,1.8,1.8,0,0,1-.4-1.4v-3.6h1V305q0,.6.2.7l1,.2,1-.2q.2-.2.2-.8Z" transform="translate(-764.8 -251)"/>
      <path class="cls-1" d="M1210.8,301.4v5.3H1209l-1.5-2.9-.4-.8-.2-.4-.2-.4h0v4.4h-1v-5.3h1.7l1.4,2.7.4.9.2.4.2.4h0v-4.4Z" transform="translate(-764.8 -251)"/>
      <path class="cls-1" d="M1215.7,301.4v5.3h-1v-5.3Z" transform="translate(-764.8 -251)"/>
      <path class="cls-1" d="M1221.7,302.3v4.4h-1v-4.4h-1.5v-.9h4.1v.9Z" transform="translate(-764.8 -251)"/>
    </g>
  </g>
</svg>
