<svg xmlns="http://www.w3.org/2000/svg" viewBox="0 0 229 65" width="229" height="65">
	<style>
		tspan { white-space:pre }
		.shp0 { fill: #6c594b } 
		.shp1 { fill: #d68717 } 
		.shp2 { fill: #d78817 } 
	</style>
	<g id="Layer">
		<g id="Layer">
			<path id="Layer" fill-rule="evenodd" class="shp0" d="M26.4 49L28.8 56L27.4 56L27 54.7L24 54.7L23.6 56L22.2 56L24.5 49L26.4 49ZM26.7 53.7L25.5 50.1L24.3 53.7L26.7 53.7Z" />
			<path id="Layer" class="shp0" d="M39.2 53L39.2 54.8L39.2 54.8L38.9 54.2L38.6 53.6L38 52.5L36.2 49L34 49L34 56L35.3 56L35.3 50.2L35.4 50.2L35.6 50.7L35.8 51.2L36.3 52.2L38.3 56L40.5 56L40.5 49L39.2 49L39.2 53Z" />
			<path id="Layer" class="shp0" d="M52.2 48.9L50.5 48.9L48.2 51.8L47.6 51.8L47.6 48.9L46.2 48.9L46.2 55.9L47.6 55.9L47.6 52.9L48.2 52.9L50.8 55.9L52.5 55.9L49.3 52.3L52.2 48.9L52.2 48.9Z" />
			<path id="Layer" class="shp0" d="M57.5 48.9L58.8 48.9L58.8 55.9L57.5 55.9L57.5 48.9Z" />
			<path id="Layer" class="shp0" d="M69.8 53L69.8 54.8L69.8 54.8L69.5 54.2L69.2 53.6L68.6 52.5L66.8 49L64.6 49L64.6 56L65.9 56L65.9 50.2L66 50.2L66.2 50.7L66.4 51.2L66.9 52.2L68.9 56L71.1 56L71.1 49L69.8 49L69.8 53Z" />
			<path id="Layer" class="shp0" d="M79.6 52.2L79.6 53.2L81.4 53.2L81.4 53.5C81.4 54.1 81.3 54.5 81.1 54.6C80.99 54.65 80.88 54.69 80.76 54.73C80.65 54.76 80.53 54.78 80.41 54.8C80.3 54.82 80.18 54.83 80.06 54.83C79.94 54.83 79.82 54.82 79.7 54.8C79.58 54.81 79.46 54.82 79.34 54.81C79.22 54.8 79.09 54.79 78.98 54.76C78.86 54.74 78.74 54.7 78.63 54.66C78.51 54.61 78.4 54.56 78.3 54.5C78.24 54.41 78.18 54.31 78.14 54.2C78.09 54.1 78.06 53.99 78.03 53.88C78.01 53.77 77.99 53.65 77.99 53.54C77.98 53.43 77.99 53.31 78 53.2L78 51.6C77.99 51.49 77.98 51.37 77.99 51.26C77.99 51.15 78.01 51.03 78.03 50.92C78.06 50.81 78.09 50.7 78.14 50.6C78.18 50.49 78.24 50.39 78.3 50.3C78.41 50.24 78.53 50.18 78.65 50.13C78.77 50.09 78.9 50.05 79.03 50.03C79.15 50 79.28 49.99 79.41 49.98C79.54 49.98 79.67 49.98 79.8 50L81.1 50.2C81.3 50.3 81.4 50.6 81.4 51.1L82.7 51.1C82.7 50.2 82.5 49.6 82.2 49.3C82.01 49.22 81.82 49.14 81.62 49.08C81.43 49.02 81.23 48.98 81.03 48.94C80.82 48.91 80.62 48.89 80.41 48.88C80.21 48.87 80 48.88 79.8 48.9C79.63 48.89 79.46 48.9 79.29 48.91C79.12 48.92 78.95 48.93 78.79 48.96C78.62 48.98 78.45 49.02 78.29 49.06C78.12 49.1 77.96 49.15 77.8 49.2C77.7 49.25 77.6 49.31 77.5 49.38C77.41 49.44 77.32 49.52 77.25 49.61C77.17 49.69 77.1 49.79 77.04 49.89C76.98 49.99 76.94 50.09 76.9 50.2C76.85 50.44 76.81 50.68 76.77 50.92C76.74 51.16 76.72 51.4 76.7 51.64C76.68 51.89 76.67 52.13 76.67 52.37C76.67 52.61 76.68 52.86 76.7 53.1C76.67 53.31 76.67 53.52 76.68 53.73C76.69 53.94 76.72 54.15 76.77 54.36C76.83 54.56 76.9 54.76 76.98 54.95C77.07 55.14 77.18 55.33 77.3 55.5C77.47 55.62 77.66 55.72 77.85 55.81C78.04 55.9 78.24 55.97 78.45 56.02C78.65 56.07 78.86 56.1 79.07 56.12C79.28 56.13 79.49 56.12 79.7 56.1C79.92 56.13 80.14 56.14 80.36 56.14C80.59 56.13 80.81 56.12 81.03 56.08C81.25 56.05 81.46 56 81.68 55.94C81.89 55.87 82.1 55.79 82.3 55.7C82.7 55.43 82.9 54.77 82.9 53.7L82.9 52.3L79.6 52.2Z" />
			<path id="Layer" class="shp0" d="M111 53.6C111 54.1 110.9 54.5 110.7 54.6C110.49 54.67 110.28 54.72 110.06 54.75C109.84 54.79 109.62 54.81 109.4 54.81C109.18 54.81 108.96 54.79 108.74 54.75C108.52 54.72 108.31 54.67 108.1 54.6C107.9 54.5 107.8 54.1 107.8 53.6L107.8 49L106.5 49L106.5 53.7C106.48 53.87 106.47 54.04 106.48 54.21C106.5 54.39 106.53 54.55 106.58 54.72C106.64 54.88 106.71 55.04 106.79 55.19C106.88 55.34 106.98 55.47 107.1 55.6C107.29 55.69 107.48 55.77 107.67 55.83C107.87 55.89 108.07 55.94 108.27 55.97C108.47 56.01 108.68 56.03 108.88 56.03C109.09 56.04 109.3 56.02 109.5 56C109.7 56.02 109.9 56.02 110.1 56.01C110.3 56 110.49 55.97 110.69 55.93C110.88 55.89 111.08 55.83 111.26 55.76C111.45 55.69 111.63 55.6 111.8 55.5C111.91 55.37 112.01 55.23 112.09 55.08C112.18 54.93 112.25 54.78 112.3 54.61C112.35 54.45 112.38 54.28 112.4 54.11C112.42 53.94 112.42 53.77 112.4 53.6L112.4 49L111.1 49L111 53.6Z" />
			<path id="Layer" class="shp0" d="M120.9 51.9L119.3 51.7C119.17 51.63 119.1 51.37 119.1 50.9C119.09 50.83 119.1 50.77 119.11 50.7C119.12 50.64 119.14 50.57 119.16 50.51C119.19 50.45 119.22 50.39 119.26 50.34C119.3 50.29 119.35 50.24 119.4 50.2L120.6 50L121.6 50C121.7 50.1 121.8 50.3 121.9 50.7L123.2 50.7L123.2 50.4C123.22 50.26 123.23 50.13 123.22 49.99C123.21 49.85 123.18 49.72 123.14 49.59C123.09 49.46 123.03 49.33 122.96 49.22C122.89 49.1 122.8 49 122.7 48.9C122.36 48.78 122 48.68 121.64 48.62C121.28 48.55 120.92 48.52 120.55 48.52C120.18 48.52 119.82 48.55 119.46 48.62C119.1 48.68 118.74 48.78 118.4 48.9C118.29 49 118.19 49.11 118.11 49.24C118.03 49.36 117.96 49.49 117.91 49.63C117.86 49.77 117.82 49.91 117.8 50.06C117.79 50.2 117.78 50.35 117.8 50.5C117.78 50.64 117.78 50.79 117.79 50.93C117.8 51.08 117.83 51.22 117.87 51.35C117.92 51.49 117.98 51.63 118.05 51.75C118.12 51.88 118.2 51.99 118.3 52.1C118.46 52.19 118.63 52.26 118.8 52.32C118.97 52.39 119.14 52.44 119.32 52.48C119.5 52.53 119.67 52.56 119.86 52.58C120.04 52.6 120.22 52.6 120.4 52.6L121.1 52.6L121.9 52.8C121.94 52.85 121.97 52.9 122 52.96C122.03 53.01 122.06 53.07 122.07 53.13C122.09 53.19 122.1 53.25 122.11 53.31C122.11 53.38 122.11 53.44 122.1 53.5C122.1 54 122 54.3 121.9 54.4L120.8 54.6L119.4 54.4C119.2 54.3 119.1 54 119.1 53.5L117.8 53.5L117.8 53.8C117.78 53.94 117.77 54.09 117.78 54.23C117.79 54.38 117.82 54.52 117.86 54.66C117.91 54.8 117.97 54.93 118.04 55.05C118.11 55.18 118.2 55.29 118.3 55.4C118.47 55.48 118.64 55.55 118.82 55.61C119 55.67 119.19 55.72 119.37 55.75C119.56 55.79 119.75 55.81 119.93 55.82C120.12 55.82 120.31 55.82 120.5 55.8C120.7 55.82 120.91 55.83 121.12 55.83C121.32 55.82 121.53 55.8 121.73 55.77C121.93 55.74 122.13 55.69 122.33 55.63C122.52 55.56 122.71 55.49 122.9 55.4C123.3 55.1 123.4 54.5 123.4 53.6C123.41 53.46 123.41 53.33 123.4 53.19C123.39 53.06 123.36 52.92 123.31 52.8C123.27 52.67 123.21 52.54 123.14 52.43C123.07 52.31 122.99 52.2 122.9 52.1C122.75 52.03 122.59 51.96 122.42 51.91C122.26 51.85 122.09 51.81 121.93 51.77C121.76 51.74 121.59 51.72 121.41 51.7C121.24 51.69 121.07 51.69 120.9 51.7" />
			<path id="Layer" class="shp0" d="M128.8 48.9L130.1 48.9L130.1 55.9L128.8 55.9L128.8 48.9Z" />
			<path id="Layer" class="shp0" d="M141.1 53L141.1 54.8L141.1 54.8L140.8 54.2L140.5 53.6L139.9 52.5L138.2 49L135.9 49L135.9 56L137.2 56L137.2 50.2L137.3 50.2L137.5 50.7L137.7 51.2L138.2 52.2L140.2 56L142.5 56L142.5 49L141.2 49L141.1 53Z" />
			<path id="Layer" class="shp0" d="M149.3 52.8L152.6 52.8L152.6 51.9L149.3 51.9L149.3 50.1L152.8 50.1L152.8 48.9L148 48.9L148 55.9L152.8 55.9L152.8 54.8L149.3 54.8L149.3 52.8L149.3 52.8Z" />
			<path id="Layer" class="shp0" d="M161.2 51.9L159.6 51.7C159.4 51.6 159.4 51.3 159.4 50.9C159.39 50.83 159.4 50.77 159.41 50.7C159.42 50.64 159.44 50.57 159.46 50.51C159.49 50.45 159.52 50.39 159.56 50.34C159.6 50.29 159.65 50.24 159.7 50.2L160.9 50L161.9 50C162 50.1 162.1 50.3 162.2 50.7L163.5 50.7L163.5 50.4C163.52 50.26 163.53 50.13 163.52 49.99C163.51 49.85 163.48 49.72 163.44 49.59C163.39 49.46 163.33 49.33 163.26 49.22C163.19 49.1 163.1 49 163 48.9C162.66 48.78 162.3 48.68 161.94 48.62C161.58 48.55 161.22 48.52 160.85 48.52C160.48 48.52 160.12 48.55 159.76 48.62C159.4 48.68 159.04 48.78 158.7 48.9C158.59 49 158.49 49.11 158.41 49.24C158.33 49.36 158.26 49.49 158.21 49.63C158.16 49.77 158.12 49.91 158.1 50.06C158.09 50.2 158.08 50.35 158.1 50.5C158.08 50.64 158.08 50.79 158.09 50.93C158.1 51.08 158.13 51.22 158.17 51.35C158.22 51.49 158.28 51.63 158.35 51.75C158.42 51.88 158.5 51.99 158.6 52.1C158.76 52.19 158.93 52.26 159.1 52.32C159.27 52.39 159.44 52.44 159.62 52.48C159.8 52.53 159.97 52.56 160.16 52.58C160.34 52.6 160.52 52.6 160.7 52.6L161.4 52.6L162.2 52.8C162.24 52.85 162.27 52.9 162.3 52.96C162.33 53.01 162.36 53.07 162.37 53.13C162.39 53.19 162.4 53.25 162.41 53.31C162.41 53.38 162.41 53.44 162.4 53.5C162.4 54 162.3 54.3 162.2 54.4L161.1 54.6L159.7 54.4C159.5 54.3 159.4 54 159.4 53.5L158.1 53.5L158.1 53.8C158.08 53.94 158.07 54.09 158.08 54.23C158.09 54.38 158.12 54.52 158.16 54.66C158.21 54.8 158.27 54.93 158.34 55.05C158.41 55.18 158.5 55.29 158.6 55.4C158.77 55.48 158.94 55.55 159.12 55.61C159.3 55.67 159.49 55.72 159.67 55.75C159.86 55.79 160.05 55.81 160.23 55.82C160.42 55.82 160.61 55.82 160.8 55.8C161 55.82 161.21 55.83 161.42 55.83C161.62 55.82 161.83 55.8 162.03 55.77C162.23 55.74 162.43 55.69 162.63 55.63C162.82 55.56 163.01 55.49 163.2 55.4C163.6 55.1 163.7 54.5 163.7 53.6C163.72 53.46 163.72 53.33 163.71 53.19C163.7 53.06 163.67 52.92 163.62 52.79C163.58 52.66 163.52 52.54 163.45 52.42C163.38 52.31 163.3 52.2 163.2 52.1C163.05 52.03 162.89 51.96 162.72 51.91C162.56 51.85 162.39 51.81 162.23 51.77C162.06 51.74 161.89 51.72 161.71 51.7C161.54 51.69 161.37 51.69 161.2 51.7" />
			<path id="Layer" class="shp0" d="M172 51.9L170.4 51.7C170.2 51.6 170.2 51.3 170.2 50.9C170.19 50.83 170.2 50.77 170.21 50.7C170.22 50.64 170.24 50.57 170.26 50.51C170.29 50.45 170.32 50.39 170.36 50.34C170.4 50.29 170.45 50.24 170.5 50.2L171.7 50L172.7 50C172.75 50.05 172.79 50.1 172.83 50.15C172.86 50.2 172.89 50.26 172.92 50.32C172.94 50.38 172.96 50.44 172.98 50.51C172.99 50.57 173 50.63 173 50.7L174.3 50.7L174.3 50.4C174.32 50.26 174.33 50.13 174.32 49.99C174.31 49.85 174.28 49.72 174.24 49.59C174.19 49.46 174.13 49.33 174.06 49.22C173.99 49.1 173.9 49 173.8 48.9C173.46 48.78 173.1 48.68 172.74 48.62C172.38 48.55 172.02 48.52 171.65 48.52C171.28 48.52 170.92 48.55 170.56 48.62C170.2 48.68 169.84 48.78 169.5 48.9C169.39 49 169.29 49.11 169.21 49.24C169.13 49.36 169.06 49.49 169.01 49.63C168.96 49.77 168.92 49.91 168.9 50.06C168.89 50.2 168.88 50.35 168.9 50.5C168.88 50.64 168.88 50.79 168.89 50.93C168.9 51.08 168.93 51.22 168.97 51.35C169.02 51.49 169.08 51.63 169.15 51.75C169.22 51.88 169.3 51.99 169.4 52.1C169.56 52.19 169.73 52.26 169.9 52.32C170.07 52.39 170.24 52.44 170.42 52.48C170.6 52.53 170.77 52.56 170.96 52.58C171.14 52.6 171.32 52.6 171.5 52.6L172.2 52.6L173 52.8C173.04 52.85 173.07 52.9 173.1 52.96C173.13 53.01 173.16 53.07 173.17 53.13C173.19 53.19 173.2 53.25 173.21 53.31C173.21 53.38 173.21 53.44 173.2 53.5C173.2 54 173.1 54.3 173 54.4L171.9 54.6L170.5 54.4C170.3 54.3 170.2 54 170.2 53.5L168.9 53.5L168.9 53.8C168.88 53.94 168.87 54.09 168.88 54.23C168.89 54.38 168.92 54.52 168.96 54.66C169.01 54.8 169.07 54.93 169.14 55.05C169.21 55.18 169.3 55.29 169.4 55.4C169.57 55.48 169.74 55.55 169.92 55.61C170.1 55.67 170.29 55.72 170.47 55.75C170.66 55.79 170.85 55.81 171.03 55.82C171.22 55.82 171.41 55.82 171.6 55.8C171.8 55.82 172.01 55.83 172.22 55.83C172.42 55.82 172.63 55.8 172.83 55.77C173.03 55.74 173.23 55.69 173.43 55.63C173.62 55.56 173.81 55.49 174 55.4C174.4 55.1 174.5 54.5 174.5 53.6C174.51 53.46 174.51 53.33 174.5 53.19C174.49 53.06 174.46 52.92 174.41 52.8C174.37 52.67 174.31 52.54 174.24 52.43C174.17 52.31 174.09 52.2 174 52.1C173.85 52.03 173.69 51.96 173.52 51.91C173.36 51.85 173.19 51.81 173.03 51.77C172.86 51.74 172.69 51.72 172.51 51.7C172.34 51.69 172.17 51.69 172 51.7" />
			<path id="Layer" class="shp0" d="M191.6 53.6C191.6 54.1 191.5 54.5 191.3 54.6C191.09 54.67 190.88 54.72 190.66 54.75C190.44 54.79 190.22 54.81 190 54.81C189.78 54.81 189.56 54.79 189.34 54.75C189.12 54.72 188.91 54.67 188.7 54.6C188.5 54.5 188.4 54.1 188.4 53.6L188.4 49L187.1 49L187.1 53.7C187.08 53.87 187.07 54.04 187.08 54.21C187.1 54.39 187.13 54.55 187.18 54.72C187.24 54.88 187.31 55.04 187.39 55.19C187.48 55.34 187.58 55.47 187.7 55.6C187.89 55.69 188.08 55.77 188.27 55.83C188.47 55.89 188.67 55.94 188.87 55.97C189.07 56.01 189.28 56.03 189.48 56.03C189.69 56.04 189.9 56.02 190.1 56C190.3 56.02 190.5 56.02 190.7 56.01C190.9 56 191.09 55.97 191.29 55.93C191.48 55.89 191.68 55.83 191.86 55.76C192.05 55.69 192.23 55.6 192.4 55.5C192.51 55.37 192.61 55.23 192.69 55.08C192.78 54.93 192.85 54.78 192.9 54.61C192.95 54.45 192.98 54.28 193 54.11C193.02 53.94 193.02 53.77 193 53.6L193 49L191.7 49L191.6 53.6Z" />
			<path id="Layer" class="shp0" d="M203.8 53L203.8 54.8L203.8 54.8L203.5 54.2L203.2 53.6L202.6 52.5L200.8 49L198.6 49L198.6 56L199.9 56L199.9 50.2L200 50.2L200.2 50.7L200.4 51.2L200.9 52.2L202.9 56L205.1 56L205.1 49L203.8 49L203.8 53Z" />
			<path id="Layer" class="shp0" d="M210.8 48.9L212.1 48.9L212.1 55.9L210.8 55.9L210.8 48.9Z" />
			<path id="Layer" class="shp0" d="M217.4 50.1L219.4 50.1L219.4 55.9L220.7 55.9L220.7 50.1L222.8 50.1L222.8 48.9L217.4 48.9L217.4 50.1L217.4 50.1Z" />
			<path id="Layer" class="shp0" d="M223.7 17.2L217.7 17.2L204.7 30.9L204.7 4.7L200.4 4.7L200.4 44.8L204.7 44.8L204.7 37.2L208.6 33.1L217.9 44.6L218 44.8L223.5 44.8L211.6 30L223 17.9L223.7 17.2L223.7 17.2Z" />
			<path id="Layer" class="shp1" d="M36 20.5C33.7 23 32.5 26.5 32.5 30.9L32.5 44.8L36.8 44.8L36.8 30.9C36.8 27.7 37.6 25.2 39.1 23.5C40.6 21.8 42.8 21 45.7 21L46.1 21L46.1 16.7L45.7 16.7C41.6 16.7 38.3 18 36 20.5" />
			<path id="Layer" fill-rule="evenodd" class="shp1" d="M76.7 30.8C76.7 35.3 75.5 38.9 73 41.3C70.5 43.7 67 45 62.5 45C58 45 54.4 43.8 52 41.3C49.6 38.8 48.3 35.2 48.3 30.8C48.3 26.4 49.5 22.9 52 20.4C54.5 17.9 58 16.6 62.5 16.6C67 16.6 70.5 17.9 73 20.4C75.4 22.9 76.7 26.3 76.7 30.8ZM72.4 30.8C72.4 27.5 71.6 25.1 69.9 23.4C68.2 21.7 65.8 20.9 62.5 20.9C59.2 20.9 56.8 21.7 55.1 23.4C53.4 25.1 52.6 27.5 52.6 30.8C52.6 34.1 53.4 36.5 55.1 38.2C56.8 39.9 59.2 40.7 62.5 40.7C65.8 40.7 68.2 39.9 69.9 38.2C71.6 36.5 72.4 34.1 72.4 30.8Z" />
			<path id="Layer" fill-rule="evenodd" class="shp0" d="M165.5 20.4C167.9 22.9 169.2 26.4 169.2 30.8C169.2 30.95 169.19 31.1 169.16 31.25C169.13 31.39 169.08 31.54 169.02 31.68C168.96 31.81 168.89 31.94 168.8 32.07C168.71 32.19 168.61 32.3 168.5 32.4C168.4 32.5 168.29 32.58 168.18 32.66C168.06 32.73 167.94 32.8 167.81 32.85C167.68 32.9 167.55 32.94 167.41 32.97C167.28 32.99 167.14 33 167 33L145.2 33C145.25 33.53 145.35 34.06 145.49 34.57C145.64 35.09 145.83 35.59 146.07 36.06C146.31 36.54 146.59 37 146.92 37.42C147.24 37.85 147.6 38.24 148 38.6C148.48 38.97 148.99 39.29 149.53 39.57C150.07 39.85 150.63 40.08 151.21 40.26C151.79 40.43 152.39 40.56 152.99 40.64C153.59 40.71 154.19 40.73 154.8 40.7C157.9 40.7 160.3 39.9 162 38.3L162.3 38L165.3 41.1L165 41.4C162.4 43.8 159.1 45 154.7 45C150.3 45 146.7 43.8 144.3 41.3C141.9 38.8 140.6 35.4 140.6 30.9C140.6 26.4 141.8 22.9 144.3 20.4C146.8 17.9 150.3 16.6 154.8 16.6C159.3 16.6 162.8 17.9 165.3 20.4M164.7 28.7C164.66 28.16 164.56 27.62 164.42 27.1C164.27 26.58 164.08 26.07 163.84 25.59C163.6 25.1 163.32 24.64 162.99 24.2C162.67 23.77 162.3 23.37 161.9 23C160.88 22.33 159.77 21.81 158.6 21.45C157.43 21.1 156.22 20.92 155 20.92C153.78 20.92 152.57 21.1 151.4 21.45C150.23 21.81 149.12 22.33 148.1 23C147.7 23.36 147.33 23.76 147 24.2C146.67 24.63 146.39 25.09 146.15 25.58C145.91 26.07 145.72 26.57 145.57 27.1C145.43 27.62 145.34 28.16 145.3 28.7L164.7 28.7Z" />
			<path id="Layer" class="shp0" d="M193 38.3C191.3 39.9 188.9 40.8 185.7 40.8C182.5 40.8 180 40 178.3 38.3C176.6 36.6 175.8 34.2 175.8 30.9C175.8 27.6 176.6 25.2 178.3 23.6C180 22 182.4 21.1 185.7 21.1C186.28 21.07 186.87 21.09 187.45 21.16C188.02 21.22 188.6 21.34 189.16 21.5C189.72 21.66 190.26 21.87 190.79 22.12C191.32 22.37 191.82 22.67 192.3 23L192.6 23.2L195.2 19.7L194.9 19.5C194.24 19.03 193.53 18.62 192.8 18.26C192.07 17.91 191.31 17.61 190.52 17.38C189.74 17.16 188.94 16.99 188.14 16.89C187.33 16.79 186.51 16.76 185.7 16.8C181.2 16.8 177.7 18.1 175.2 20.6C172.7 23.1 171.5 26.6 171.5 31C171.5 35.4 172.8 39 175.2 41.5C177.6 44 181.2 45.2 185.7 45.2C186.19 45.21 186.68 45.19 187.17 45.16C187.66 45.12 188.15 45.07 188.64 44.99C189.12 44.92 189.61 44.82 190.08 44.7C190.56 44.59 191.03 44.45 191.5 44.3C191.92 44.16 192.33 44 192.73 43.82C193.13 43.63 193.52 43.43 193.9 43.2C194.28 42.97 194.64 42.72 194.99 42.46C195.34 42.19 195.68 41.9 196 41.6L196.3 41.3L193.3 38.1L193 38.3Z" />
			<path id="Layer" class="shp0" d="M102.8 38.3C101.1 39.9 98.7 40.8 95.5 40.8C94.96 40.82 94.42 40.81 93.88 40.75C93.34 40.69 92.81 40.6 92.28 40.46C91.76 40.33 91.24 40.15 90.74 39.94C90.24 39.73 89.76 39.48 89.3 39.2L83.3 39.2L83.6 39.6C83.7 39.76 83.81 39.92 83.92 40.08C84.03 40.23 84.14 40.38 84.26 40.53C84.37 40.68 84.49 40.83 84.62 40.98C84.74 41.12 84.87 41.26 85 41.4C87.5 43.9 91 45.1 95.5 45.1C95.99 45.11 96.48 45.09 96.97 45.06C97.46 45.02 97.95 44.97 98.44 44.89C98.92 44.82 99.41 44.72 99.88 44.6C100.36 44.49 100.83 44.35 101.3 44.2C101.72 44.06 102.13 43.9 102.53 43.72C102.93 43.53 103.32 43.33 103.7 43.1C104.08 42.87 104.44 42.62 104.79 42.36C105.14 42.09 105.48 41.8 105.8 41.5L106.1 41.2L103.1 38L102.8 38.3Z" />
			<path id="Layer" class="shp0" d="M95.5 21C96.08 20.97 96.67 20.99 97.25 21.06C97.82 21.12 98.4 21.24 98.96 21.4C99.52 21.56 100.06 21.77 100.59 22.02C101.12 22.27 101.62 22.57 102.1 22.9L102.4 23.1L105 19.6L104.7 19.4C104.04 18.92 103.34 18.5 102.61 18.13C101.88 17.77 101.12 17.47 100.33 17.23C99.55 16.99 98.75 16.82 97.94 16.72C97.13 16.61 96.32 16.57 95.5 16.6C91 16.6 87.5 17.9 85 20.4C84.85 20.56 84.7 20.72 84.56 20.89C84.41 21.06 84.28 21.23 84.14 21.41C84.01 21.58 83.88 21.76 83.76 21.94C83.63 22.13 83.51 22.31 83.4 22.5L83.2 22.9L89 22.9C89.47 22.57 89.97 22.28 90.49 22.03C91 21.78 91.54 21.58 92.09 21.42C92.65 21.26 93.21 21.14 93.78 21.07C94.35 21 94.93 20.98 95.5 21" />
			<path id="Layer" class="shp0" d="M110.3 34.6L110.3 44.9L114.6 44.9L114.6 36.3C111.5 38.1 110.3 34.7 110.3 34.7" />
			<path id="Layer" class="shp0" d="M132.3 34.7L136.6 34.7L136.6 44.82L132.3 44.82L132.3 34.7Z" />
			<path id="Layer" class="shp0" d="M114.4 27.5L114.4 27.5C114.4 27.11 114.45 26.73 114.54 26.35C114.63 25.98 114.77 25.61 114.94 25.27C115.11 24.92 115.32 24.6 115.57 24.3C115.81 24 116.09 23.73 116.4 23.5C116.89 23.1 117.41 22.73 117.96 22.42C118.51 22.11 119.08 21.84 119.68 21.63C120.27 21.42 120.89 21.26 121.51 21.15C122.14 21.05 122.77 20.99 123.4 21C124.01 20.96 124.61 20.98 125.22 21.07C125.82 21.16 126.41 21.31 126.98 21.52C127.54 21.74 128.09 22.01 128.6 22.35C129.1 22.68 129.57 23.07 130 23.5C130.25 23.79 130.47 24.1 130.68 24.42C130.88 24.74 131.06 25.08 131.22 25.42C131.38 25.77 131.52 26.12 131.63 26.49C131.75 26.85 131.84 27.22 131.9 27.6L131.9 27.8L136.3 27.8L136.3 27.5C136.27 27.29 136.23 27.08 136.19 26.87C136.15 26.66 136.1 26.45 136.05 26.24C136 26.03 135.95 25.82 135.89 25.62C135.83 25.41 135.77 25.2 135.7 25C135.56 24.59 135.41 24.18 135.23 23.78C135.05 23.38 134.85 22.99 134.63 22.61C134.42 22.24 134.18 21.87 133.92 21.52C133.67 21.16 133.39 20.82 133.1 20.5C132.81 20.19 132.5 19.9 132.17 19.63C131.85 19.36 131.51 19.1 131.16 18.87C130.8 18.63 130.44 18.42 130.06 18.22C129.68 18.03 129.3 17.85 128.9 17.7C128.46 17.53 128.02 17.38 127.57 17.25C127.12 17.12 126.66 17.02 126.2 16.93C125.74 16.85 125.27 16.79 124.8 16.75C124.34 16.71 123.87 16.69 123.4 16.7C122.93 16.69 122.47 16.7 122 16.73C121.53 16.76 121.07 16.82 120.61 16.89C120.15 16.97 119.69 17.07 119.24 17.18C118.79 17.3 118.34 17.44 117.9 17.6C117.59 17.72 117.29 17.84 116.99 17.99C116.69 18.13 116.4 18.28 116.11 18.45C115.83 18.62 115.55 18.8 115.28 18.99C115.01 19.18 114.75 19.39 114.5 19.6L114.5 4.8L110.2 4.8L110.2 26C110.2 26 112.9 24.4 114.4 27.5Z" />
			<path id="Layer" class="shp1" d="M97.3 34.2L81 34.2C80.49 34.07 79.96 34.19 79.54 34.51C79.13 34.83 78.89 35.33 78.89 35.85C78.89 36.37 79.13 36.87 79.54 37.19C79.96 37.51 80.49 37.63 81 37.5L98.6 37.5L98.9 37.3L99.1 37.3L106.1 31C106.26 30.85 106.4 30.67 106.49 30.46C106.58 30.26 106.64 30.04 106.65 29.82C106.66 29.6 106.62 29.38 106.54 29.17C106.47 28.96 106.35 28.76 106.2 28.6C106.05 28.44 105.87 28.3 105.66 28.21C105.46 28.12 105.24 28.06 105.02 28.05C104.8 28.04 104.58 28.08 104.37 28.16C104.16 28.23 103.96 28.35 103.8 28.5L97.3 34.2Z" />
			<path id="Layer" class="shp1" d="M81 32.8L96.5 32.8C97.01 32.93 97.54 32.81 97.96 32.49C98.37 32.17 98.61 31.67 98.61 31.15C98.61 30.63 98.37 30.13 97.96 29.81C97.54 29.49 97.01 29.37 96.5 29.5L81 29.5C80.49 29.37 79.96 29.49 79.54 29.81C79.13 30.13 78.89 30.63 78.89 31.15C78.89 31.67 79.13 32.17 79.54 32.49C79.96 32.81 80.49 32.93 81 32.8Z" />
			<path id="Layer" class="shp1" d="M136.3 29.4L121 29.4C120.49 29.27 119.96 29.39 119.54 29.71C119.13 30.03 118.89 30.53 118.89 31.05C118.89 31.57 119.13 32.07 119.54 32.39C119.96 32.71 120.49 32.83 121 32.7L136.2 32.7C136.71 32.83 137.24 32.71 137.66 32.39C138.07 32.07 138.31 31.57 138.31 31.05C138.31 30.53 138.07 30.03 137.66 29.71C137.24 29.39 136.71 29.27 136.2 29.4" />
			<path id="Layer" class="shp1" d="M81 27.7L97.4 27.7L99.3 29.3C99.47 29.44 99.67 29.55 99.88 29.62C100.09 29.69 100.32 29.72 100.54 29.7C100.76 29.68 100.98 29.62 101.18 29.51C101.38 29.41 101.56 29.27 101.7 29.1C101.84 28.93 101.95 28.73 102.02 28.52C102.09 28.31 102.12 28.08 102.1 27.86C102.08 27.64 102.02 27.42 101.91 27.22C101.81 27.02 101.67 26.84 101.5 26.7L99.2 24.7L98.9 24.5L81 24.5C80.49 24.37 79.96 24.49 79.54 24.81C79.13 25.13 78.89 25.63 78.89 26.15C78.89 26.67 79.13 27.17 79.54 27.49C79.96 27.81 80.49 27.93 81 27.8" />
			<path id="Layer" class="shp1" d="M106 32.9C106.02 33.22 106.12 33.52 106.3 33.78C106.49 34.04 106.74 34.24 107.03 34.37C107.32 34.49 107.64 34.53 107.95 34.49C108.27 34.44 108.56 34.31 108.8 34.1L112.1 30.9C112.32 30.58 112.42 30.19 112.39 29.8C112.35 29.42 112.19 29.05 111.92 28.77C111.65 28.49 111.29 28.31 110.91 28.26C110.52 28.21 110.13 28.3 109.8 28.5L106.5 31.7C106.42 31.78 106.35 31.86 106.29 31.96C106.23 32.05 106.17 32.15 106.13 32.25C106.09 32.35 106.06 32.46 106.03 32.57C106.01 32.68 106 32.79 106 32.9" />
			<path id="Layer" class="shp1" d="M118.7 29.7C118.68 29.38 118.58 29.08 118.4 28.82C118.21 28.56 117.96 28.36 117.67 28.23C117.38 28.11 117.06 28.07 116.75 28.11C116.43 28.16 116.14 28.29 115.9 28.5L112.6 31.7C112.16 31.97 111.87 32.42 111.81 32.93C111.74 33.44 111.91 33.95 112.26 34.32C112.62 34.69 113.12 34.88 113.64 34.84C114.15 34.8 114.61 34.53 114.9 34.1L118.2 30.9C118.28 30.82 118.35 30.74 118.41 30.64C118.47 30.55 118.53 30.45 118.57 30.35C118.61 30.25 118.64 30.14 118.67 30.03C118.69 29.92 118.7 29.81 118.7 29.7Z" />
			<path id="Layer" fill-rule="evenodd" class="shp1" d="M24.7 20.4C27.1 22.9 28.4 26.3 28.4 30.8C28.4 35.3 27.2 38.9 24.7 41.3C22.2 43.7 18.7 45 14.3 45C13.78 45.01 13.26 45 12.75 44.96C12.23 44.92 11.72 44.86 11.2 44.78C10.69 44.7 10.19 44.59 9.68 44.46C9.18 44.33 8.69 44.18 8.2 44C7.84 43.88 7.5 43.74 7.15 43.59C6.81 43.43 6.48 43.26 6.15 43.08C5.82 42.9 5.5 42.7 5.19 42.48C4.89 42.27 4.59 42.04 4.3 41.8L4.3 56.4L0 56.4L0 30.8C0 26.4 1.2 22.8 3.7 20.4C6.2 18 9.8 16.7 14.2 16.7C18.6 16.7 22.1 17.9 24.6 20.4M24.1 30.8C24.1 27.6 23.3 25.1 21.6 23.5C19.9 21.9 17.5 21 14.2 21C10.9 21 8.5 21.9 6.8 23.5C5.1 25.1 4.3 27.5 4.3 30.8C4.3 34.1 5.1 36.5 6.8 38.2C8.5 39.9 11 40.7 14.2 40.7C17.4 40.7 19.9 39.9 21.6 38.2C23.2 36.5 24.1 34 24.1 30.8Z" />
			<path id="Layer" fill-rule="evenodd" class="shp0" d="M16.3 52.4C17.1 52.53 17.5 53.1 17.5 54.1C17.51 54.24 17.51 54.37 17.49 54.51C17.48 54.64 17.45 54.77 17.4 54.9C17.36 55.03 17.31 55.15 17.24 55.27C17.17 55.39 17.09 55.5 17 55.6C16.88 55.68 16.76 55.75 16.63 55.8C16.5 55.86 16.37 55.91 16.24 55.94C16.1 55.98 15.96 56 15.82 56.01C15.68 56.02 15.54 56.01 15.4 56L11.8 56L11.8 49L15.2 49C15.34 48.99 15.48 48.99 15.62 49C15.76 49.01 15.9 49.04 16.03 49.07C16.17 49.1 16.3 49.15 16.43 49.2C16.56 49.26 16.68 49.32 16.8 49.4C16.88 49.5 16.96 49.62 17.02 49.73C17.08 49.85 17.13 49.98 17.16 50.11C17.19 50.24 17.22 50.37 17.22 50.5C17.23 50.63 17.22 50.77 17.2 50.9C17.2 51.7 16.9 52.2 16.2 52.4M13.2 51.9L14.8 51.9L15.8 51.7C15.9 51.6 16 51.4 16 50.9C16 50.4 15.6 50.1 15 50.1L13.1 50.1L13.2 51.9ZM15.9 54.7C15.94 54.64 15.98 54.58 16.01 54.52C16.04 54.45 16.06 54.39 16.08 54.32C16.09 54.25 16.11 54.18 16.11 54.11C16.11 54.04 16.11 53.97 16.1 53.9C16.1 53.5 16 53.2 15.9 53.1L14.8 52.9L13.1 52.9L13.1 54.9L15 54.9C15 54.9 15.9 54.7 15.9 54.7Z" />
			<path id="Layer" fill-rule="evenodd" class="shp0" d="M99.9 52.4C100.7 52.53 101.1 53.1 101.1 54.1C101.11 54.24 101.11 54.37 101.09 54.51C101.08 54.64 101.05 54.77 101 54.9C100.96 55.03 100.91 55.15 100.84 55.27C100.77 55.39 100.69 55.5 100.6 55.6C100.48 55.68 100.36 55.75 100.23 55.8C100.1 55.86 99.97 55.91 99.84 55.94C99.7 55.98 99.56 56 99.42 56.01C99.28 56.02 99.14 56.01 99 56L95.4 56L95.4 49L98.8 49C98.94 48.99 99.08 48.99 99.22 49C99.36 49.01 99.5 49.04 99.63 49.07C99.77 49.1 99.9 49.15 100.03 49.2C100.16 49.26 100.28 49.32 100.4 49.4C100.48 49.5 100.56 49.62 100.62 49.73C100.68 49.85 100.73 49.98 100.76 50.11C100.79 50.24 100.82 50.37 100.82 50.5C100.83 50.63 100.82 50.77 100.8 50.9C100.8 51.7 100.5 52.2 99.8 52.4M96.8 51.9L98.4 51.9L99.4 51.7C99.5 51.6 99.6 51.4 99.6 50.9C99.6 50.4 99.2 50.1 98.6 50.1L96.7 50.1L96.8 51.9ZM99.5 54.7C99.54 54.64 99.58 54.58 99.61 54.52C99.64 54.45 99.66 54.39 99.68 54.32C99.69 54.25 99.71 54.18 99.71 54.11C99.71 54.04 99.71 53.97 99.7 53.9C99.7 53.5 99.6 53.2 99.5 53.1L98.4 52.9L96.7 52.9L96.7 54.9L98.6 54.9C98.6 54.9 99.5 54.7 99.5 54.7Z" />
		</g>
		<path id="Layer" class="shp2" d="M246 0L246 64.1" />
		<g id="Layer">
			<path id="Layer" class="shp0" d="M422 17.3C420.8 15.7 419 14.9 416.4 14.9L381.2 14.9L381.2 23.7C381.64 23.53 382.11 23.46 382.58 23.49C383.05 23.53 383.5 23.66 383.91 23.89C384.32 24.12 384.68 24.44 384.95 24.82C385.23 25.2 385.41 25.64 385.5 26.1L385.5 19.1L400.3 19.1L400.3 25.2L404.7 25.2L404.7 19.1L415.1 19.1C416.2 19.1 419.4 19.5 419.4 24.3L419.4 43L423.7 43L423.7 22.8C423.72 22.31 423.7 21.82 423.63 21.34C423.57 20.85 423.46 20.37 423.32 19.91C423.17 19.44 422.99 18.98 422.77 18.55C422.55 18.11 422.29 17.69 422 17.3Z" />
			<path id="Layer" class="shp0" d="M400.3 32.9L404.7 32.9L404.7 43.01L400.3 43.01L400.3 32.9Z" />
			<path id="Layer" class="shp0" d="M382 33.7L381.4 32.9L381.2 32.4L381.2 43L385.5 43L385.5 34.8L384.7 34.8C384.45 34.8 384.2 34.78 383.96 34.73C383.71 34.68 383.47 34.61 383.24 34.52C383.01 34.43 382.79 34.31 382.58 34.17C382.37 34.03 382.18 33.88 382 33.7L382 33.7Z" />
		</g>
		<path id="Layer" class="shp0" d="M296.8 29.2C296.52 28.86 296.21 28.56 295.86 28.29C295.51 28.03 295.14 27.8 294.74 27.62C294.34 27.44 293.93 27.31 293.5 27.22C293.07 27.13 292.64 27.09 292.2 27.1L277 27.1C276.47 27.14 275.94 27.07 275.44 26.89C274.94 26.72 274.49 26.43 274.11 26.06C273.73 25.69 273.44 25.25 273.24 24.75C273.05 24.26 272.97 23.73 273 23.2C273 20.8 274.5 19.3 277 19.3L297.3 19.3L297.3 15L275.5 15C275.2 14.99 274.9 15.01 274.6 15.05C274.31 15.09 274.01 15.15 273.72 15.24C273.44 15.32 273.15 15.43 272.88 15.56C272.61 15.68 272.35 15.83 272.1 16C270 17.4 269 19.8 269 23.1C268.97 23.62 268.98 24.15 269.04 24.67C269.1 25.19 269.21 25.71 269.37 26.21C269.52 26.72 269.72 27.2 269.96 27.67C270.2 28.14 270.48 28.58 270.8 29C271.08 29.34 271.39 29.64 271.74 29.91C272.09 30.17 272.46 30.4 272.86 30.58C273.26 30.76 273.67 30.89 274.1 30.98C274.53 31.07 274.96 31.11 275.4 31.1L290.6 31.1C293.1 31.1 294.6 32.6 294.6 35C294.65 35.54 294.57 36.08 294.39 36.58C294.2 37.09 293.91 37.55 293.53 37.93C293.15 38.31 292.69 38.6 292.18 38.79C291.68 38.97 291.14 39.05 290.6 39L269 39L269 43.2L292.2 43.2C292.5 43.21 292.8 43.2 293.09 43.17C293.39 43.14 293.68 43.08 293.97 43C294.26 42.93 294.54 42.83 294.81 42.71C295.08 42.6 295.35 42.46 295.6 42.3C297.6 40.9 298.6 38.6 298.6 35.2C298.64 34.67 298.62 34.13 298.57 33.6C298.51 33.07 298.4 32.55 298.25 32.04C298.09 31.53 297.89 31.03 297.65 30.55C297.41 30.08 297.12 29.62 296.8 29.2Z" />
		<path id="Layer" fill-rule="evenodd" class="shp0" d="M333.1 20.9C333.16 21.29 333.21 21.68 333.24 22.07C333.28 22.46 333.31 22.85 333.32 23.24C333.34 23.64 333.35 24.03 333.34 24.42C333.34 24.82 333.32 25.21 333.3 25.6L333.3 43.1L310 43.1C309.56 43.12 309.12 43.1 308.68 43.02C308.25 42.94 307.82 42.82 307.42 42.65C307.01 42.47 306.63 42.25 306.27 41.99C305.91 41.73 305.59 41.43 305.3 41.1C304.98 40.67 304.69 40.2 304.45 39.72C304.21 39.23 304.01 38.73 303.86 38.21C303.7 37.69 303.6 37.16 303.54 36.62C303.48 36.08 303.46 35.54 303.5 35C303.47 34.47 303.48 33.93 303.54 33.4C303.6 32.87 303.71 32.35 303.86 31.84C304.01 31.33 304.21 30.83 304.45 30.36C304.7 29.88 304.98 29.43 305.3 29C305.59 28.67 305.92 28.37 306.27 28.11C306.63 27.85 307.02 27.64 307.42 27.47C307.83 27.29 308.25 27.17 308.69 27.09C309.12 27.01 309.56 26.98 310 27L328.7 27L328.7 25.3C328.7 21.5 327 20.2 325.6 19.7C325.41 19.64 325.21 19.59 325.01 19.55C324.81 19.51 324.61 19.48 324.41 19.45C324.21 19.43 324.01 19.41 323.81 19.4C323.6 19.39 323.4 19.39 323.2 19.4L305.3 19.4L305.3 15L325.1 15C325.66 14.96 326.23 14.99 326.79 15.08C327.35 15.16 327.89 15.31 328.42 15.52C328.94 15.73 329.45 15.99 329.91 16.31C330.38 16.62 330.81 16.99 331.2 17.4C331.43 17.65 331.64 17.9 331.84 18.18C332.04 18.45 332.21 18.73 332.37 19.03C332.53 19.32 332.68 19.63 332.8 19.94C332.92 20.25 333.02 20.57 333.1 20.9ZM328.8 38.7L328.8 31L312.1 31.05C311.09 31.05 310.13 31.45 309.41 32.16C308.7 32.88 308.3 33.84 308.3 34.85C308.3 35.86 308.7 36.82 309.41 37.54C310.13 38.25 311.09 38.65 312.1 38.7L328.8 38.7Z" />
		<path id="Layer" fill-rule="evenodd" class="shp0" d="M457.9 20.9C457.97 21.29 458.02 21.68 458.07 22.07C458.11 22.46 458.15 22.85 458.17 23.24C458.2 23.63 458.21 24.03 458.22 24.42C458.22 24.81 458.22 25.21 458.2 25.6L458.2 43.1L434.9 43.1C434.46 43.12 434.02 43.1 433.58 43.02C433.15 42.94 432.72 42.82 432.32 42.65C431.91 42.47 431.53 42.25 431.17 41.99C430.81 41.73 430.49 41.43 430.2 41.1C429.88 40.67 429.59 40.2 429.35 39.72C429.11 39.23 428.91 38.73 428.76 38.21C428.6 37.69 428.5 37.16 428.44 36.62C428.38 36.08 428.36 35.54 428.4 35C428.37 34.47 428.38 33.93 428.44 33.4C428.5 32.87 428.61 32.35 428.76 31.84C428.91 31.33 429.11 30.83 429.35 30.36C429.6 29.88 429.88 29.43 430.2 29C430.49 28.67 430.82 28.37 431.17 28.11C431.53 27.85 431.92 27.64 432.32 27.47C432.73 27.29 433.15 27.17 433.59 27.09C434.02 27.01 434.46 26.98 434.9 27L453.6 27L453.6 25.3C453.6 21.5 451.9 20.2 450.5 19.7C450.31 19.64 450.11 19.59 449.91 19.55C449.71 19.51 449.51 19.48 449.31 19.45C449.11 19.43 448.91 19.41 448.71 19.4C448.5 19.39 448.3 19.39 448.1 19.4L430.2 19.4L430.2 15L449.9 15C450.46 14.96 451.03 14.99 451.59 15.08C452.15 15.16 452.69 15.31 453.22 15.52C453.74 15.73 454.25 15.99 454.71 16.31C455.18 16.62 455.61 16.99 456 17.4C456.23 17.65 456.44 17.9 456.64 18.18C456.84 18.45 457.01 18.73 457.17 19.03C457.33 19.32 457.48 19.63 457.6 19.94C457.72 20.25 457.82 20.57 457.9 20.9ZM453.6 38.7L453.6 31L436.9 31.05C435.89 31.05 434.93 31.45 434.21 32.16C433.5 32.88 433.1 33.84 433.1 34.85C433.1 35.86 433.5 36.82 434.21 37.54C434.93 38.25 435.89 38.65 436.9 38.7L453.6 38.7Z" />
		<path id="Layer" class="shp2" d="M341 18.4C339.1 20.9 338.2 24.4 338.2 29C338.2 33.6 339.1 37.1 341 39.6C342.9 42.1 345.3 43.1 348.8 43.1L371.2 43.1L371.2 33.2L366.7 33.2L366.7 38.9L349.9 38.9C349.31 38.92 348.72 38.86 348.14 38.71C347.57 38.56 347.02 38.34 346.51 38.04C346 37.74 345.53 37.37 345.12 36.94C344.72 36.51 344.37 36.03 344.1 35.5C343.62 34.49 343.26 33.42 343.01 32.33C342.76 31.24 342.64 30.12 342.64 29C342.64 27.88 342.76 26.76 343.01 25.67C343.26 24.58 343.62 23.51 344.1 22.5C344.38 21.99 344.72 21.52 345.12 21.11C345.53 20.69 345.98 20.34 346.48 20.05C346.99 19.76 347.52 19.54 348.08 19.39C348.64 19.25 349.22 19.19 349.8 19.2L371.1 19.2L371.1 15L348.7 15C345.3 14.9 342.8 16 341 18.4Z" />
		<g id="Layer">
			<path id="Layer" class="shp2" d="M375.3 35.8L375.1 35.8L374.8 36L355.8 36C355.32 35.95 354.86 35.76 354.53 35.42C354.19 35.09 354 34.63 354 34.15C354 33.67 354.19 33.21 354.53 32.88C354.86 32.54 355.32 32.35 355.8 32.35L373.4 32.3L380.6 25.9C380.96 25.59 381.43 25.43 381.91 25.45C382.38 25.48 382.83 25.7 383.15 26.05C383.46 26.41 383.62 26.88 383.6 27.36C383.57 27.83 383.35 28.28 383 28.6L375.3 35.8Z" />
			<path id="Layer" class="shp2" d="M355.8 27.2L372.5 27.2C372.98 27.25 373.44 27.44 373.77 27.78C374.11 28.11 374.3 28.57 374.3 29.05C374.3 29.53 374.11 29.99 373.77 30.32C373.44 30.66 372.98 30.85 372.5 30.85L355.8 30.9C355.32 30.85 354.86 30.66 354.53 30.32C354.19 29.99 354 29.53 354 29.05C354 28.57 354.19 28.11 354.53 27.78C354.86 27.44 355.32 27.25 355.8 27.25L355.8 27.2Z" />
			<path id="Layer" class="shp2" d="M416.2 30.9L399.5 30.9C399.02 30.85 398.56 30.66 398.23 30.32C397.89 29.99 397.7 29.53 397.7 29.05C397.7 28.57 397.89 28.11 398.23 27.78C398.56 27.44 399.02 27.25 399.5 27.25L416.2 27.2C416.68 27.25 417.14 27.44 417.47 27.78C417.81 28.11 418 28.57 418 29.05C418 29.53 417.81 29.99 417.47 30.32C417.14 30.66 416.68 30.85 416.2 30.85L416.2 30.9Z" />
			<path id="Layer" class="shp2" d="M376.7 27.6C376.59 27.6 376.48 27.6 376.38 27.58C376.27 27.57 376.17 27.54 376.06 27.51C375.96 27.47 375.86 27.43 375.77 27.38C375.67 27.33 375.58 27.27 375.5 27.2L373.4 25.4L355.7 25.4C355.22 25.35 354.76 25.16 354.43 24.82C354.09 24.49 353.9 24.03 353.9 23.55C353.9 23.07 354.09 22.61 354.43 22.28C354.76 21.94 355.22 21.75 355.7 21.75L374.9 21.7L375.2 21.9L377.8 24.1C378.09 24.34 378.31 24.66 378.41 25.03C378.51 25.39 378.49 25.78 378.36 26.13C378.22 26.49 377.98 26.79 377.67 27C377.35 27.21 376.98 27.31 376.6 27.3L376.7 27.6Z" />
			<path id="Layer" class="shp2" d="M386 32.4C385.64 32.71 385.18 32.9 384.7 32.9C384.22 32.9 383.76 32.71 383.43 32.37C383.09 32.04 382.9 31.58 382.9 31.1C382.9 30.62 383.09 30.16 383.43 29.83L387.1 26.2C387.46 25.89 387.92 25.7 388.4 25.7C388.88 25.7 389.34 25.89 389.67 26.23C390.01 26.56 390.2 27.02 390.2 27.5C390.2 27.98 390.01 28.44 389.67 28.77L386 32.4Z" />
			<path id="Layer" class="shp2" d="M392.7 32.4C392.34 32.71 391.88 32.9 391.4 32.9C390.92 32.9 390.46 32.71 390.13 32.37C389.79 32.04 389.6 31.58 389.6 31.1C389.6 30.62 389.79 30.16 390.13 29.83L393.8 26.2C394.16 25.89 394.62 25.7 395.1 25.7C395.58 25.7 396.04 25.89 396.37 26.23C396.71 26.56 396.9 27.02 396.9 27.5C396.9 27.98 396.71 28.44 396.37 28.77L392.7 32.4Z" />
		</g>
		<g id="Layer">
			<path id="Layer" class="shp0" d="M270.3 50.4L270.3 55.7L269.3 55.7L269.3 50.4L270.3 50.4Z" />
			<path id="Layer" class="shp0" d="M279.1 50.4L279.1 55.7L277.4 55.7L275.9 52.8L275.5 52L275.3 51.6L275.1 51.2L275.1 51.2L275.1 55.6L274.1 55.6L274.1 50.3L275.8 50.3L277.2 53L277.6 53.9L277.8 54.3L278 54.7L278 54.7L278 50.3L279.1 50.4Z" />
			<path id="Layer" class="shp0" d="M286.9 51.9L285.9 51.9C285.9 51.63 285.83 51.43 285.7 51.3L284 51.3C283.96 51.34 283.92 51.38 283.89 51.42C283.86 51.47 283.83 51.52 283.81 51.57C283.8 51.62 283.79 51.68 283.78 51.73C283.78 51.79 283.79 51.85 283.8 51.9C283.8 52.23 283.87 52.43 284 52.5L285.2 52.7C285.33 52.69 285.46 52.69 285.59 52.7C285.71 52.71 285.84 52.73 285.97 52.76C286.1 52.78 286.22 52.81 286.34 52.86C286.46 52.9 286.58 52.94 286.7 53C286.76 53.08 286.82 53.16 286.86 53.24C286.91 53.33 286.94 53.42 286.97 53.52C286.99 53.61 287.01 53.71 287.01 53.81C287.02 53.91 287.01 54 287 54.1C287 54.83 286.87 55.3 286.6 55.5C286.46 55.57 286.32 55.62 286.17 55.67C286.02 55.71 285.87 55.75 285.72 55.77C285.57 55.8 285.42 55.81 285.26 55.82C285.11 55.82 284.95 55.82 284.8 55.8C284.65 55.82 284.51 55.82 284.36 55.82C284.22 55.81 284.07 55.8 283.93 55.77C283.79 55.75 283.64 55.71 283.5 55.66C283.37 55.62 283.23 55.56 283.1 55.5C283.03 55.42 282.96 55.33 282.9 55.24C282.85 55.15 282.8 55.05 282.77 54.94C282.73 54.84 282.71 54.73 282.7 54.63C282.69 54.52 282.69 54.41 282.7 54.3L282.7 54L283.7 54C283.7 54.4 283.77 54.63 283.9 54.7L285.8 54.7C285.93 54.63 286 54.4 286 54C286.01 53.96 286.01 53.91 286.01 53.87C286.01 53.83 286.01 53.78 286 53.74C285.99 53.7 285.98 53.66 285.96 53.62C285.94 53.58 285.92 53.54 285.9 53.5L285.3 53.3L284.7 53.3C284.56 53.3 284.42 53.29 284.28 53.28C284.15 53.26 284.01 53.24 283.87 53.2C283.74 53.17 283.61 53.13 283.48 53.08C283.35 53.02 283.22 52.97 283.1 52.9C283.03 52.82 282.96 52.73 282.9 52.64C282.85 52.55 282.8 52.45 282.77 52.34C282.73 52.24 282.71 52.13 282.7 52.03C282.69 51.92 282.69 51.81 282.7 51.7C282.69 51.59 282.69 51.48 282.7 51.37C282.71 51.27 282.73 51.16 282.77 51.06C282.8 50.95 282.85 50.85 282.9 50.76C282.96 50.67 283.03 50.58 283.1 50.5C283.36 50.4 283.64 50.33 283.91 50.28C284.19 50.23 284.47 50.21 284.75 50.21C285.03 50.21 285.31 50.23 285.59 50.28C285.86 50.33 286.14 50.4 286.4 50.5C286.47 50.57 286.54 50.65 286.59 50.73C286.65 50.82 286.7 50.91 286.73 51C286.77 51.1 286.79 51.2 286.8 51.3C286.81 51.4 286.81 51.5 286.8 51.6L286.9 51.9Z" />
			<path id="Layer" class="shp0" d="M292.8 51.3L292.8 55.7L291.8 55.7L291.8 51.3L290.3 51.3L290.3 50.4L294.4 50.4L294.4 51.3L292.8 51.3Z" />
			<path id="Layer" class="shp0" d="M298.9 50.4L298.9 55.7L297.9 55.7L297.9 50.4L298.9 50.4Z" />
			<path id="Layer" class="shp0" d="M304.9 51.3L304.9 55.7L303.9 55.7L303.9 51.3L302.4 51.3L302.4 50.4L306.5 50.4L306.5 51.3L304.9 51.3Z" />
			<path id="Layer" class="shp0" d="M313.4 50.4L314.4 50.4L314.4 53.9C314.42 54.03 314.43 54.17 314.42 54.3C314.42 54.43 314.39 54.56 314.36 54.69C314.33 54.82 314.28 54.95 314.22 55.07C314.16 55.18 314.08 55.3 314 55.4C313.87 55.48 313.74 55.54 313.6 55.6C313.47 55.65 313.32 55.7 313.18 55.73C313.04 55.76 312.89 55.79 312.74 55.8C312.6 55.81 312.45 55.81 312.3 55.8C312.15 55.82 311.99 55.82 311.84 55.82C311.68 55.82 311.53 55.8 311.38 55.78C311.23 55.75 311.08 55.72 310.93 55.67C310.78 55.62 310.64 55.57 310.5 55.5C310.42 55.4 310.35 55.3 310.29 55.19C310.23 55.08 310.19 54.96 310.15 54.84C310.12 54.72 310.1 54.6 310.09 54.47C310.08 54.35 310.08 54.22 310.1 54.1L310.1 50.5L311.1 50.5L311.1 54C311.1 54.4 311.17 54.63 311.3 54.7L312.3 54.9L313.3 54.7C313.43 54.57 313.5 54.3 313.5 53.9L313.4 50.4Z" />
			<path id="Layer" class="shp0" d="M320.4 51.3L320.4 55.7L319.4 55.7L319.4 51.3L317.9 51.3L317.9 50.4L322 50.4L322 51.3L320.4 51.3Z" />
			<path id="Layer" class="shp0" d="M326.5 50.4L326.5 55.7L325.5 55.7L325.5 50.4L326.5 50.4Z" />
			<path id="Layer" fill-rule="evenodd" class="shp0" d="M332.6 50.3C332.77 50.28 332.94 50.27 333.1 50.28C333.27 50.29 333.44 50.31 333.6 50.36C333.76 50.4 333.92 50.46 334.07 50.53C334.22 50.61 334.37 50.7 334.5 50.8C334.59 50.97 334.67 51.14 334.73 51.32C334.79 51.5 334.84 51.68 334.88 51.87C334.91 52.05 334.93 52.24 334.93 52.43C334.94 52.62 334.93 52.81 334.9 53C334.92 53.2 334.93 53.39 334.93 53.59C334.92 53.79 334.91 53.99 334.87 54.18C334.84 54.37 334.79 54.57 334.73 54.75C334.67 54.94 334.59 55.12 334.5 55.3C334.23 55.63 333.57 55.8 332.5 55.8C332.33 55.82 332.17 55.83 332 55.82C331.83 55.81 331.66 55.78 331.5 55.74C331.34 55.69 331.18 55.64 331.03 55.56C330.88 55.49 330.73 55.4 330.6 55.3C330.51 55.14 330.43 54.98 330.37 54.81C330.31 54.64 330.26 54.46 330.23 54.28C330.19 54.1 330.17 53.92 330.17 53.74C330.16 53.56 330.17 53.38 330.2 53.2C330.18 53 330.16 52.79 330.17 52.58C330.17 52.38 330.19 52.17 330.23 51.97C330.26 51.77 330.31 51.57 330.37 51.37C330.43 51.18 330.51 50.99 330.6 50.8C330.8 50.47 331.47 50.3 332.6 50.3ZM331.3 51.5C331.26 51.65 331.22 51.79 331.19 51.94C331.16 52.09 331.13 52.24 331.12 52.39C331.1 52.54 331.09 52.69 331.09 52.85C331.09 53 331.09 53.15 331.1 53.3C331.09 53.42 331.08 53.54 331.08 53.66C331.08 53.78 331.09 53.9 331.11 54.01C331.12 54.13 331.15 54.25 331.18 54.36C331.21 54.48 331.25 54.59 331.3 54.7C331.43 54.83 331.83 54.9 332.5 54.9C333.17 54.9 333.53 54.8 333.6 54.6C333.64 54.47 333.68 54.34 333.71 54.21C333.75 54.08 333.77 53.95 333.79 53.81C333.8 53.68 333.81 53.54 333.81 53.41C333.82 53.27 333.81 53.13 333.8 53C333.81 52.87 333.82 52.73 333.81 52.59C333.81 52.46 333.8 52.32 333.79 52.19C333.77 52.05 333.75 51.92 333.71 51.79C333.68 51.66 333.64 51.53 333.6 51.4C333.53 51.27 333.17 51.2 332.5 51.2C331.83 51.2 331.43 51.3 331.3 51.5Z" />
			<path id="Layer" class="shp0" d="M343.4 50.4L343.4 55.7L341.7 55.7L340.2 52.8L339.8 52L339.6 51.6L339.4 51.2L339.4 51.2L339.4 55.6L338.4 55.6L338.4 50.3L340.1 50.3L341.5 53L341.9 53.9L342.1 54.3L342.3 54.7L342.3 54.7L342.3 50.3L343.4 50.4Z" />
			<path id="Layer" fill-rule="evenodd" class="shp0" d="M350.5 54.7L348.2 54.7L347.9 55.7L346.8 55.7L348.6 50.4L350.1 50.4L351.9 55.7L350.9 55.7L350.5 54.7ZM350.3 54L349.4 51.2L348.5 54L350.3 54Z" />
			<path id="Layer" class="shp0" d="M356.3 50.4L356.3 54.8L358.8 54.8L358.8 55.7L355.3 55.7L355.3 50.4L356.3 50.4Z" />
			<path id="Layer" fill-rule="evenodd" class="shp0" d="M367.2 55.7L367.2 50.4L369.8 50.4C369.91 50.39 370.03 50.38 370.14 50.39C370.25 50.4 370.37 50.41 370.48 50.44C370.59 50.46 370.69 50.5 370.8 50.54C370.9 50.59 371 50.64 371.1 50.7C371.16 50.78 371.22 50.86 371.26 50.94C371.31 51.03 371.34 51.12 371.37 51.22C371.39 51.31 371.41 51.41 371.41 51.51C371.42 51.61 371.41 51.7 371.4 51.8C371.4 52.47 371.13 52.87 370.6 53C371.2 53.07 371.5 53.5 371.5 54.3C371.51 54.4 371.5 54.5 371.49 54.6C371.47 54.7 371.45 54.8 371.41 54.89C371.38 54.98 371.33 55.08 371.28 55.16C371.23 55.25 371.17 55.33 371.1 55.4C371.01 55.46 370.92 55.51 370.82 55.55C370.73 55.6 370.63 55.63 370.53 55.66C370.42 55.68 370.32 55.7 370.22 55.71C370.11 55.71 370 55.71 369.9 55.7L367.2 55.7ZM368.2 52.6L370.2 52.6C370.33 52.53 370.4 52.33 370.4 52C370.4 51.67 370.17 51.47 369.7 51.4L368.2 51.4L368.2 52.6ZM368.2 54.8L370.3 54.8C370.34 54.76 370.37 54.72 370.4 54.67C370.42 54.62 370.44 54.57 370.46 54.52C370.48 54.47 370.49 54.42 370.5 54.36C370.5 54.31 370.5 54.25 370.5 54.2C370.5 53.87 370.43 53.67 370.3 53.6L368.2 53.6L368.2 54.8Z" />
			<path id="Layer" class="shp0" d="M378.7 50.4L379.7 50.4L379.7 53.9C379.72 54.03 379.73 54.17 379.72 54.3C379.72 54.43 379.69 54.56 379.66 54.69C379.63 54.82 379.58 54.95 379.52 55.07C379.46 55.18 379.38 55.3 379.3 55.4C379.17 55.48 379.04 55.54 378.9 55.6C378.77 55.65 378.62 55.7 378.48 55.73C378.34 55.76 378.19 55.79 378.04 55.8C377.9 55.81 377.75 55.81 377.6 55.8C377.45 55.82 377.29 55.82 377.14 55.82C376.98 55.82 376.83 55.8 376.68 55.78C376.53 55.75 376.38 55.72 376.23 55.67C376.08 55.62 375.94 55.57 375.8 55.5C375.72 55.4 375.65 55.3 375.59 55.19C375.53 55.08 375.49 54.96 375.45 54.84C375.42 54.72 375.4 54.6 375.39 54.47C375.38 54.35 375.38 54.22 375.4 54.1L375.4 50.5L376.4 50.5L376.4 54C376.4 54.4 376.47 54.63 376.6 54.7L377.6 54.9L378.6 54.7C378.73 54.57 378.8 54.3 378.8 53.9L378.7 50.4Z" />
			<path id="Layer" class="shp0" d="M387.5 51.9L386.5 51.9C386.5 51.63 386.43 51.43 386.3 51.3L384.6 51.3C384.56 51.34 384.52 51.38 384.49 51.42C384.46 51.47 384.43 51.52 384.41 51.57C384.4 51.62 384.39 51.68 384.38 51.73C384.38 51.79 384.39 51.85 384.4 51.9C384.4 52.23 384.47 52.43 384.6 52.5L385.8 52.7C385.93 52.69 386.06 52.69 386.19 52.7C386.31 52.71 386.44 52.73 386.57 52.76C386.7 52.78 386.82 52.81 386.94 52.86C387.06 52.9 387.18 52.94 387.3 53C387.36 53.08 387.42 53.16 387.46 53.24C387.51 53.33 387.54 53.42 387.57 53.52C387.59 53.61 387.61 53.71 387.61 53.81C387.62 53.91 387.61 54 387.6 54.1C387.6 54.83 387.47 55.3 387.2 55.5C387.06 55.57 386.92 55.62 386.77 55.67C386.62 55.71 386.47 55.75 386.32 55.77C386.17 55.8 386.02 55.81 385.86 55.82C385.71 55.82 385.55 55.82 385.4 55.8C385.25 55.82 385.11 55.82 384.96 55.82C384.82 55.81 384.67 55.8 384.53 55.77C384.39 55.75 384.24 55.71 384.1 55.66C383.97 55.62 383.83 55.56 383.7 55.5C383.63 55.42 383.56 55.33 383.5 55.24C383.45 55.15 383.4 55.05 383.37 54.94C383.33 54.84 383.31 54.73 383.3 54.63C383.29 54.52 383.29 54.41 383.3 54.3L383.3 54L384.3 54C384.3 54.4 384.37 54.63 384.5 54.7L386.4 54.7C386.53 54.63 386.6 54.4 386.6 54C386.61 53.96 386.61 53.91 386.61 53.87C386.61 53.83 386.61 53.78 386.6 53.74C386.59 53.7 386.58 53.66 386.56 53.62C386.54 53.58 386.52 53.54 386.5 53.5L385.9 53.3L385.3 53.3C385.16 53.3 385.02 53.29 384.88 53.28C384.75 53.26 384.61 53.24 384.47 53.2C384.34 53.17 384.21 53.13 384.08 53.08C383.95 53.02 383.82 52.97 383.7 52.9C383.63 52.82 383.56 52.73 383.5 52.64C383.45 52.55 383.4 52.45 383.37 52.34C383.33 52.24 383.31 52.13 383.3 52.03C383.29 51.92 383.29 51.81 383.3 51.7C383.29 51.59 383.29 51.48 383.3 51.37C383.31 51.27 383.33 51.16 383.37 51.06C383.4 50.95 383.45 50.85 383.5 50.76C383.56 50.67 383.63 50.58 383.7 50.5C383.96 50.4 384.24 50.33 384.51 50.28C384.79 50.23 385.07 50.21 385.35 50.21C385.63 50.21 385.91 50.23 386.19 50.28C386.46 50.33 386.74 50.4 387 50.5C387.07 50.57 387.14 50.65 387.19 50.73C387.25 50.82 387.3 50.91 387.33 51C387.37 51.1 387.39 51.2 387.4 51.3C387.41 51.4 387.41 51.5 387.4 51.6L387.5 51.9Z" />
			<path id="Layer" class="shp0" d="M392.3 50.4L392.3 55.7L391.3 55.7L391.3 50.4L392.3 50.4Z" />
			<path id="Layer" class="shp0" d="M401.1 50.4L401.1 55.7L399.4 55.7L397.9 52.8L397.5 52L397.3 51.6L397.1 51.2L397.1 51.2L397.1 55.6L396.1 55.6L396.1 50.3L397.8 50.3L399.2 53L399.6 53.9L399.8 54.3L400 54.7L400 54.7L400 50.3L401.1 50.4Z" />
			<path id="Layer" class="shp0" d="M405.9 51.2L405.9 52.6L408.4 52.6L408.4 53.3L405.9 53.3L405.9 54.8L408.6 54.8L408.6 55.6L404.9 55.6L404.9 50.3L408.5 50.3L408.5 51.1L405.9 51.2Z" />
			<path id="Layer" class="shp0" d="M416.2 51.9L415.2 51.9C415.2 51.63 415.13 51.43 415 51.3L413.3 51.3C413.26 51.34 413.22 51.38 413.19 51.42C413.16 51.47 413.13 51.52 413.11 51.57C413.1 51.62 413.09 51.68 413.08 51.73C413.08 51.79 413.09 51.85 413.1 51.9C413.1 52.23 413.17 52.43 413.3 52.5L414.5 52.7C414.63 52.69 414.76 52.69 414.89 52.7C415.01 52.71 415.14 52.73 415.27 52.76C415.4 52.78 415.52 52.81 415.64 52.86C415.76 52.9 415.88 52.94 416 53C416.06 53.08 416.12 53.16 416.16 53.24C416.21 53.33 416.24 53.42 416.27 53.52C416.29 53.61 416.31 53.71 416.31 53.81C416.32 53.91 416.31 54 416.3 54.1C416.3 54.83 416.17 55.3 415.9 55.5C415.76 55.57 415.62 55.62 415.47 55.67C415.32 55.71 415.17 55.75 415.02 55.77C414.87 55.8 414.72 55.81 414.56 55.82C414.41 55.82 414.25 55.82 414.1 55.8C413.95 55.82 413.81 55.82 413.66 55.82C413.52 55.81 413.37 55.8 413.23 55.77C413.09 55.75 412.94 55.71 412.8 55.66C412.67 55.62 412.53 55.56 412.4 55.5C412.33 55.42 412.26 55.33 412.2 55.24C412.15 55.15 412.1 55.05 412.07 54.94C412.03 54.84 412.01 54.73 412 54.63C411.99 54.52 411.99 54.41 412 54.3L412 54L413 54C413 54.4 413.07 54.63 413.2 54.7L415.1 54.7C415.23 54.63 415.3 54.4 415.3 54C415.31 53.96 415.31 53.91 415.31 53.87C415.31 53.83 415.31 53.78 415.3 53.74C415.29 53.7 415.28 53.66 415.26 53.62C415.24 53.58 415.22 53.54 415.2 53.5L414.6 53.3L414 53.3C413.86 53.3 413.72 53.29 413.58 53.28C413.45 53.26 413.31 53.24 413.17 53.2C413.04 53.17 412.91 53.13 412.78 53.08C412.65 53.02 412.52 52.97 412.4 52.9C412.33 52.82 412.26 52.73 412.2 52.64C412.15 52.55 412.1 52.45 412.07 52.34C412.03 52.24 412.01 52.13 412 52.03C411.99 51.92 411.99 51.81 412 51.7C411.99 51.59 411.99 51.48 412 51.37C412.01 51.27 412.03 51.16 412.07 51.06C412.1 50.95 412.15 50.85 412.2 50.76C412.26 50.67 412.33 50.58 412.4 50.5C412.66 50.4 412.94 50.33 413.21 50.28C413.49 50.23 413.77 50.21 414.05 50.21C414.33 50.21 414.61 50.23 414.89 50.28C415.16 50.33 415.44 50.4 415.7 50.5C415.77 50.57 415.84 50.65 415.89 50.73C415.95 50.82 416 50.91 416.03 51C416.07 51.1 416.09 51.2 416.1 51.3C416.11 51.4 416.11 51.5 416.1 51.6L416.2 51.9Z" />
			<path id="Layer" class="shp0" d="M424 51.9L423 51.9C423 51.63 422.93 51.43 422.8 51.3L421.1 51.3C421.06 51.34 421.02 51.38 420.99 51.42C420.96 51.47 420.93 51.52 420.91 51.57C420.9 51.62 420.89 51.68 420.88 51.73C420.88 51.79 420.89 51.85 420.9 51.9C420.9 52.23 420.97 52.43 421.1 52.5L422.3 52.7C422.43 52.69 422.56 52.69 422.69 52.7C422.81 52.71 422.94 52.73 423.07 52.76C423.2 52.78 423.32 52.81 423.44 52.86C423.56 52.9 423.68 52.94 423.8 53C423.86 53.08 423.92 53.16 423.96 53.24C424.01 53.33 424.04 53.42 424.07 53.52C424.09 53.61 424.11 53.71 424.11 53.81C424.12 53.91 424.11 54 424.1 54.1C424.1 54.83 423.97 55.3 423.7 55.5C423.56 55.57 423.42 55.62 423.27 55.67C423.12 55.71 422.97 55.75 422.82 55.77C422.67 55.8 422.52 55.81 422.36 55.82C422.21 55.82 422.05 55.82 421.9 55.8C421.75 55.82 421.61 55.82 421.46 55.82C421.32 55.81 421.17 55.8 421.03 55.77C420.89 55.75 420.74 55.71 420.6 55.66C420.47 55.62 420.33 55.56 420.2 55.5C420.13 55.42 420.06 55.33 420 55.24C419.95 55.15 419.9 55.05 419.87 54.94C419.83 54.84 419.81 54.73 419.8 54.63C419.79 54.52 419.79 54.41 419.8 54.3L419.8 54L420.8 54C420.8 54.4 420.87 54.63 421 54.7L422.9 54.7C423.03 54.63 423.1 54.4 423.1 54C423.11 53.96 423.11 53.91 423.11 53.87C423.11 53.83 423.11 53.78 423.1 53.74C423.09 53.7 423.08 53.66 423.06 53.62C423.04 53.58 423.02 53.54 423 53.5L422.4 53.3L421.8 53.3C421.66 53.3 421.52 53.29 421.38 53.28C421.25 53.26 421.11 53.24 420.97 53.2C420.84 53.17 420.71 53.13 420.58 53.08C420.45 53.02 420.32 52.97 420.2 52.9C420.13 52.82 420.06 52.73 420 52.64C419.95 52.55 419.9 52.45 419.87 52.34C419.83 52.24 419.81 52.13 419.8 52.03C419.79 51.92 419.79 51.81 419.8 51.7C419.79 51.59 419.79 51.48 419.8 51.37C419.81 51.27 419.83 51.16 419.87 51.06C419.9 50.95 419.95 50.85 420 50.76C420.06 50.67 420.13 50.58 420.2 50.5C420.46 50.4 420.74 50.33 421.01 50.28C421.29 50.23 421.57 50.21 421.85 50.21C422.13 50.21 422.41 50.23 422.69 50.28C422.96 50.33 423.24 50.4 423.5 50.5C423.57 50.57 423.64 50.65 423.69 50.73C423.75 50.82 423.8 50.91 423.83 51C423.87 51.1 423.89 51.2 423.9 51.3C423.91 51.4 423.91 51.5 423.9 51.6L424 51.9Z" />
			<path id="Layer" class="shp0" d="M436.1 50.4L437.1 50.4L437.1 53.9C437.12 54.03 437.13 54.17 437.12 54.3C437.12 54.43 437.09 54.56 437.06 54.69C437.03 54.82 436.98 54.95 436.92 55.07C436.86 55.18 436.78 55.3 436.7 55.4C436.57 55.48 436.44 55.54 436.3 55.6C436.17 55.65 436.02 55.7 435.88 55.73C435.74 55.76 435.59 55.79 435.44 55.8C435.3 55.81 435.15 55.81 435 55.8C434.85 55.82 434.69 55.82 434.54 55.82C434.38 55.82 434.23 55.8 434.08 55.78C433.93 55.75 433.78 55.72 433.63 55.67C433.48 55.62 433.34 55.57 433.2 55.5C433.12 55.4 433.05 55.3 432.99 55.19C432.93 55.08 432.89 54.96 432.85 54.84C432.82 54.72 432.8 54.6 432.79 54.47C432.78 54.35 432.78 54.22 432.8 54.1L432.8 50.5L433.8 50.5L433.8 54C433.8 54.4 433.87 54.63 434 54.7L435 54.9L436 54.7C436.13 54.57 436.2 54.3 436.2 53.9L436.1 50.4Z" />
			<path id="Layer" class="shp0" d="M446 50.4L446 55.7L444.2 55.7L442.7 52.8L442.3 52L442.1 51.6L441.9 51.2L441.9 51.2L441.9 55.6L440.9 55.6L440.9 50.3L442.6 50.3L444 53L444.4 53.9L444.6 54.3L444.8 54.7L444.8 54.7L444.8 50.3L446 50.4Z" />
			<path id="Layer" class="shp0" d="M450.9 50.4L450.9 55.7L449.9 55.7L449.9 50.4L450.9 50.4Z" />
			<path id="Layer" class="shp0" d="M456.9 51.3L456.9 55.7L455.9 55.7L455.9 51.3L454.4 51.3L454.4 50.4L458.5 50.4L458.5 51.3L456.9 51.3Z" />
		</g>
	</g>
</svg>